<svg width="86" height="86" viewBox="0 0 86 86" fill="none" xmlns="http://www.w3.org/2000/svg">
<g id="Achievement">
<path id="Vector" d="M43 83.3125C65.264 83.3125 83.3125 65.264 83.3125 43C83.3125 20.736 65.264 2.6875 43 2.6875C20.736 2.6875 2.6875 20.736 2.6875 43C2.6875 65.264 20.736 83.3125 43 83.3125Z" fill="#382673"/>
<path id="Vector_2" d="M43 76.5938C61.5533 76.5938 76.5938 61.5533 76.5938 43C76.5938 24.4467 61.5533 9.40625 43 9.40625C24.4467 9.40625 9.40625 24.4467 9.40625 43C9.40625 61.5533 24.4467 76.5938 43 76.5938Z" fill="#473080"/>
<path id="Vector_3" d="M72.5625 62.4844H13.4375L18.1406 57.7812H67.8594L72.5625 62.4844Z" fill="white"/>
<path id="Vector_4" opacity="0.2" d="M72.5625 62.4844H13.4375L18.1406 57.7812H67.8594L72.5625 62.4844Z" fill="#382673"/>
<path id="Vector_5" d="M13.4375 62.4844H72.5625V67.1875H13.4375V62.4844Z" fill="white"/>
<path id="Vector_6" d="M36.9531 57.1094L18.1406 39.6406L22.8438 36.2812H36.9531V57.1094Z" fill="#00A58C"/>
<path id="Vector_7" d="M18.1406 39.6406H36.9531V60.4688H18.1406V39.6406Z" fill="#00C2A9"/>
<path id="Vector_8" d="M68.5312 46.3594L49.7188 57.1094V43H63.8281L68.5312 46.3594Z" fill="#D44A90"/>
<path id="Vector_9" d="M49.7188 46.3594H68.5312V60.4688H49.7188V46.3594Z" fill="#F15A9E"/>
<path id="Vector_10" d="M33.5938 32.25H52.4062V60.4688H33.5938V32.25Z" fill="#FFDE39"/>
<path id="Vector_11" d="M52.4062 32.25H33.5938L36.2812 28.2188H49.7188L52.4062 32.25Z" fill="#FEC632"/>
<path id="Vector_12" d="M43.0001 24.0529L46.4267 25.867C46.897 26.1357 47.5017 25.7326 47.4345 25.1279L46.7626 21.2982L49.5173 18.6107C49.9204 18.2076 49.7189 17.5357 49.1142 17.4686L45.2845 16.9311L43.6048 13.4373C43.336 12.8998 42.6642 12.8998 42.3954 13.4373L40.7157 16.8639L36.886 17.4686C36.3485 17.5357 36.0798 18.2076 36.4829 18.6107L39.2376 21.2982L38.5657 25.1279C38.4985 25.6654 39.036 26.1357 39.5735 25.867L43.0001 24.0529ZM45.2173 52.2045H42.261V46.4264C42.261 45.7545 42.261 45.0826 42.3282 44.4779C42.1267 44.6795 41.9251 44.9482 41.6564 45.1498L40.447 46.1576L38.8345 44.3436L42.597 41.3201H45.2173V52.2045Z" fill="white"/>
<path id="Vector_13" d="M13.4375 70.4797C20.8281 78.4078 31.3094 83.4469 43 83.4469C54.6906 83.4469 65.1719 78.4078 72.5625 70.4797V67.1875H13.4375V70.4797Z" fill="#0CAFE8"/>
</g>
</svg>
