<svg width="86" height="86" viewBox="0 0 86 86" fill="none" xmlns="http://www.w3.org/2000/svg">
<g id="Achievement">
<path id="Vector" d="M43 83.3125C65.264 83.3125 83.3125 65.264 83.3125 43C83.3125 20.736 65.264 2.6875 43 2.6875C20.736 2.6875 2.6875 20.736 2.6875 43C2.6875 65.264 20.736 83.3125 43 83.3125Z" fill="#382673"/>
<path id="Vector_2" d="M43 76.5938C61.5533 76.5938 76.5938 61.5533 76.5938 43C76.5938 24.4467 61.5533 9.40625 43 9.40625C24.4467 9.40625 9.40625 24.4467 9.40625 43C9.40625 61.5533 24.4467 76.5938 43 76.5938Z" fill="#473080"/>
<path id="Vector_3" d="M49.9875 27.2105C49.786 28.5543 49.45 30.5027 47.8375 32.3168C47.3672 26.8074 43.336 20.0215 38.9688 18.0059C37.625 24.1871 30.5703 29.4949 29.361 36.8184C28.1516 44.1418 33.1907 51.0621 40.5141 52.2043C47.8375 53.4137 54.7578 48.3746 55.9 41.0512C56.7735 35.7434 53.8844 29.4277 49.9875 27.2105Z" fill="#FFDE39"/>
<path id="Vector_4" d="M38.8343 50.3906C35.0718 48.375 33.6609 43.6719 35.6765 39.8422C36.6171 37.8266 37.6921 34.7359 37.8937 32.9219C39.9765 33.0563 43.3359 34.5344 46.1577 36.7516C48.9796 38.9688 51.3312 43.4703 49.3156 47.3C47.3671 51.0625 42.5968 52.4734 38.8343 50.3906Z" fill="#FEC632"/>
<path id="Vector_5" d="M15.4531 48.375C15.4531 48.375 17.4688 59.125 28.8906 67.8594M70.5469 48.375C70.5469 48.375 68.5312 59.125 57.1094 67.8594" stroke="#00A58C" stroke-width="2" stroke-miterlimit="10" stroke-linecap="round" stroke-linejoin="round"/>
<path id="Vector_6" d="M46.0906 46.8969C45.8891 49.1141 43.6719 50.5922 41.4547 50.2563C39.2375 49.9203 37.5578 47.7703 38.0953 45.6203C38.9016 42.3281 43.0672 40.3125 43.0672 40.3125C43.0672 40.3125 46.3594 44.3438 46.0906 46.8969Z" fill="#F9A74E"/>
<path id="Vector_7" d="M25.7329 59.1248C25.7329 59.192 27.6141 60.4686 27.8829 61.9467C28.1516 63.492 26.4719 64.8357 26.4047 64.8357C26.4047 64.9029 23.986 63.4248 23.8516 61.7451C23.7844 60.1326 25.8 59.1248 25.7329 59.1248ZM25.9344 65.5076C25.9344 65.5076 25.1282 67.5904 23.3141 67.5232C21.4329 67.3889 19.5516 64.7686 19.5516 64.7686C19.5516 64.7686 20.6938 62.8873 22.4407 63.1561C24.1204 63.4248 25.8672 65.5076 25.9344 65.5076ZM22.7766 55.0936C22.7766 55.1607 24.3891 56.7732 24.3219 58.3186C24.2547 59.8639 22.3063 60.8717 22.3063 60.8717C22.3063 60.9389 20.2235 59.0576 20.425 57.3107C20.6266 55.6982 22.7766 55.1607 22.7766 55.0936ZM21.7016 61.4764C21.7016 61.4764 20.4922 63.3576 18.7454 62.8873C16.9313 62.417 15.5875 59.3936 15.5875 59.3936C15.5875 59.3936 17.1329 57.7811 18.7454 58.3857C20.2907 59.0576 21.6344 61.4764 21.7016 61.4764ZM20.6266 50.5248C20.6266 50.592 21.836 52.5404 21.5 54.0186C21.1641 55.5639 19.0141 56.1686 19.0141 56.1014C19.0141 56.1686 17.3344 53.817 17.8719 52.2045C18.4094 50.7264 20.6266 50.592 20.6266 50.5248ZM15.2516 44.9482C15.2516 44.9482 17.2 46.3592 17.6032 48.1061C17.9391 49.8529 16.7297 51.8686 16.7297 51.8686C16.7297 51.8686 14.4454 50.9279 13.975 48.8451C13.5047 46.8295 15.2516 44.9482 15.2516 44.9482ZM18.275 56.5717C18.275 56.5717 16.7297 58.1842 15.1172 57.3779C13.4375 56.5045 12.6985 53.2795 12.6985 53.2795C12.6985 53.2795 14.5125 52.0029 15.9907 52.9436C17.4016 53.9514 18.275 56.5717 18.275 56.5717ZM66.3813 64.7686C66.4485 64.7686 64.5 67.3889 62.6188 67.5232C60.8047 67.6576 59.9985 65.5076 59.9985 65.5076C60.0657 65.5076 61.8125 63.4248 63.4922 63.1561C65.2391 62.8873 66.4485 64.7686 66.3813 64.7686ZM59.5282 64.8357C59.5282 64.8357 57.8485 63.492 58.05 61.9467C58.3188 60.4686 60.2 59.1248 60.2 59.1248C60.2 59.1248 62.1485 60.1326 62.0813 61.8123C61.9469 63.492 59.5282 64.9029 59.5282 64.8357ZM70.4125 59.4607C70.4797 59.4607 69.0688 62.417 67.2547 62.9545C65.5079 63.4248 64.2985 61.4764 64.2985 61.5436C64.3657 61.5436 65.6422 59.1248 67.2547 58.5201C68.8672 57.8482 70.4125 59.3936 70.4125 59.4607ZM63.6938 60.9389C63.6938 60.9389 61.7454 59.9311 61.6782 58.3857C61.611 56.8404 63.2235 55.2279 63.2235 55.1607C63.2235 55.1607 65.3735 55.7654 65.575 57.3779C65.7766 59.0576 63.6938 60.9389 63.6938 60.9389ZM73.2344 53.3467C73.3016 53.3467 72.4954 56.5717 70.8157 57.4451C69.2032 58.2514 67.6579 56.6389 67.6579 56.6389C67.725 56.6389 68.5313 54.0186 69.9422 53.0107C71.4204 52.0029 73.2344 53.2795 73.2344 53.3467ZM70.8157 44.9482C70.8157 44.9482 72.4954 46.8295 72.0922 48.9123C71.6219 50.9951 69.3375 51.9357 69.3375 51.9357C69.3375 51.9357 68.1282 49.9201 68.4641 48.1732C68.8672 46.4264 70.8157 45.0154 70.8157 44.9482ZM66.9188 56.1686C66.9188 56.1686 64.7688 55.5639 64.4329 54.0857C64.0969 52.6076 65.3063 50.592 65.3063 50.592C65.3063 50.592 67.5235 50.7264 68.061 52.3389C68.6657 53.9514 66.9188 56.2357 66.9188 56.1686Z" fill="#00C2A9"/>
<path id="Vector_8" d="M56.4375 55.0938H29.5625V51.0625C29.5625 49.5844 30.7719 48.375 32.25 48.375H53.75C55.2281 48.375 56.4375 49.5844 56.4375 51.0625V55.0938Z" fill="white"/>
<path id="Vector_9" opacity="0.2" d="M53.75 48.375H50.3906C51.8687 48.375 53.0781 49.5844 53.0781 51.0625V55.0938H56.4375V51.0625C56.4375 49.5844 55.2281 48.375 53.75 48.375Z" fill="#382673"/>
<path id="Vector_10" d="M51.2641 63.1562H34.7359C33.6609 63.1562 32.6531 62.4844 32.25 61.4766L29.5625 55.0938H56.4375L53.75 61.4766C53.3469 62.4844 52.3391 63.1562 51.2641 63.1562Z" fill="#0CAFE8"/>
<path id="Vector_11" d="M53.0781 55.0938L50.3906 61.4766C49.9875 62.4844 48.9797 63.1562 47.9047 63.1562H51.2641C52.3391 63.1562 53.3469 62.4844 53.75 61.4766L56.4375 55.0938H53.0781ZM37.5578 82.9766C39.3719 83.2453 41.1859 83.3797 43 83.3797C44.8141 83.3797 46.6281 83.2453 48.4422 82.9766L49.7188 63.1562H36.2812L37.5578 82.9766Z" fill="#0B90D3"/>
<path id="Vector_12" d="M47.0312 83.1109L48.4422 82.9094L49.7188 63.1562H47.7031L47.0312 83.1109Z" fill="#007BC6"/>
<path id="Vector_13" d="M36.4828 65.8438H49.5172L49.7188 63.1562H36.2812L36.4828 65.8438Z" fill="#007BC6"/>
<path id="Vector_14" d="M49.7188 21.5C50.4609 21.5 51.0625 20.8984 51.0625 20.1562C51.0625 19.4141 50.4609 18.8125 49.7188 18.8125C48.9766 18.8125 48.375 19.4141 48.375 20.1562C48.375 20.8984 48.9766 21.5 49.7188 21.5Z" fill="#F9A74E"/>
<path id="Vector_15" d="M43.6719 14.7812C44.414 14.7812 45.0156 14.1796 45.0156 13.4375C45.0156 12.6954 44.414 12.0938 43.6719 12.0938C42.9297 12.0938 42.3281 12.6954 42.3281 13.4375C42.3281 14.1796 42.9297 14.7812 43.6719 14.7812Z" fill="#FEC632"/>
</g>
</svg>
