<svg width="86" height="86" viewBox="0 0 86 86" fill="none" xmlns="http://www.w3.org/2000/svg">
<g id="Activity">
<path id="Vector" d="M43 83.3125C65.264 83.3125 83.3125 65.264 83.3125 43C83.3125 20.736 65.264 2.6875 43 2.6875C20.736 2.6875 2.6875 20.736 2.6875 43C2.6875 65.264 20.736 83.3125 43 83.3125Z" fill="#382673"/>
<path id="Vector_2" d="M43 76.5938C61.5533 76.5938 76.5938 61.5533 76.5938 43C76.5938 24.4467 61.5533 9.40625 43 9.40625C24.4467 9.40625 9.40625 24.4467 9.40625 43C9.40625 61.5533 24.4467 76.5938 43 76.5938Z" fill="#473080"/>
<path id="Vector_3" d="M74.7126 67.8594H11.2876C18.6782 77.2656 30.1001 83.3125 43.0001 83.3125C55.9001 83.3125 67.322 77.2656 74.7126 67.8594Z" fill="#00A58C"/>
<path id="Vector_4" d="M32.5188 32.1828L43.6719 40.7156L66.7844 10.4813C62.4844 7.32344 57.5125 4.90469 52.1375 3.69531L32.5188 32.1828Z" fill="#FFDE39"/>
<path id="Vector_5" d="M64.0298 8.59961L41.8579 39.3043L43.6048 40.648L66.7173 10.4137C65.8439 9.80898 64.9704 9.2043 64.0298 8.59961Z" fill="#FEC632"/>
<path id="Vector_6" d="M53.8172 27.2783L42.1266 18.208L33.6609 30.5033L32.5859 32.2502L43.6047 40.6486L53.8172 27.2783Z" fill="white"/>
<path id="Vector_7" opacity="0.2" d="M51.7345 25.666L41.8579 39.3723L43.6048 40.6488L53.8173 27.2785L51.7345 25.666Z" fill="#382673"/>
<path id="Vector_8" d="M66.1797 69.2031H19.8203C18.8797 69.2031 18.1406 68.4641 18.1406 67.5234C18.1406 66.5828 18.8797 65.8438 19.8203 65.8438H66.1797C67.1203 65.8438 67.8594 66.5828 67.8594 67.5234C67.8594 68.4641 67.1203 69.2031 66.1797 69.2031Z" fill="#00C2A9"/>
<path id="Vector_9" d="M48.2406 51.3986V37.8268C43.739 38.0955 39.5062 33.4596 35.2734 27.6143L20.5593 41.7236L44.0078 63.8283H62.4843V61.208C62.4843 58.7221 60.939 56.5049 58.6546 55.5643L48.2406 51.3986Z" fill="#F15A9E"/>
<path id="Vector_10" d="M29.2937 49.9871C31.3765 47.9043 32.7202 44.948 32.7202 41.7902C32.7202 38.5652 31.3765 35.609 29.2265 33.459C25.3968 35.7434 22.4405 38.498 20.6265 41.7902L29.2937 49.9871Z" fill="#D44A90"/>
<path id="Vector_11" d="M64.4999 64.5004C64.4999 65.2395 63.8952 65.8442 63.1562 65.8442H44.0077C43.4702 65.8442 42.9999 65.6426 42.5968 65.3067L18.6781 42.7317C18.1406 42.1942 18.1406 41.3879 18.6109 40.8504L19.5515 39.8426C20.089 39.3051 20.8952 39.3051 21.4327 39.7754L44.814 61.8129H63.1562C63.8952 61.8129 64.4999 62.4176 64.4999 63.1567V64.5004Z" fill="white"/>
<path id="Vector_12" d="M46.4937 34.2656C45.2844 34.2656 44.3438 35.2734 44.3438 36.4156V47.4344C44.3438 49.5844 46.0906 51.3313 48.375 51.3313V34.2656H46.4937Z" fill="#A72973"/>
<path id="Vector_13" d="M47.0312 61.8125H62.4844V61.2078C62.4844 59.9312 62.0813 58.7219 61.4094 57.7812H51.0625C48.8453 57.7812 47.0312 59.5953 47.0312 61.8125Z" fill="#D44A90"/>
<path id="Vector_14" d="M34.4 58.1846L27.4125 51.6674C27.0766 51.3987 27.1438 50.8612 27.4797 50.6596L30.7719 48.2408C31.0406 48.0393 31.3766 48.1065 31.6453 48.308L37.5578 53.8174C37.8266 54.019 37.8266 54.4221 37.6922 54.6908L35.475 58.1174C35.2063 58.4533 34.736 58.5205 34.4 58.1846Z" fill="white"/>
<path id="Vector_15" opacity="0.2" d="M34.4 58.1846L27.4125 51.6674C27.0766 51.3987 27.1438 50.8612 27.4797 50.6596L30.7719 48.2408C31.0406 48.0393 31.3766 48.1065 31.6453 48.308L37.5578 53.8174C37.8266 54.019 37.8266 54.4221 37.6922 54.6908L35.475 58.1174C35.2063 58.4533 34.736 58.5205 34.4 58.1846Z" fill="#382673"/>
<path id="Vector_16" d="M32.4517 30.302L34.6688 27.077C35.1392 26.4051 36.147 26.2707 36.7517 26.8754L38.297 28.4207C38.4313 28.5551 38.4985 28.7567 38.4985 28.9582C38.4313 29.6973 38.297 31.5785 39.372 32.6535C36.4829 33.7285 32.4517 30.302 32.4517 30.302Z" fill="#D44A90"/>
<path id="Vector_17" d="M48.2407 40.1777H43.5376M48.2407 44.209H43.5376M48.2407 48.2402H43.5376" stroke="#D44A90" stroke-width="3" stroke-miterlimit="10" stroke-linecap="round" stroke-linejoin="round"/>
</g>
</svg>
