<svg width="45" height="44" viewBox="0 0 45 44" fill="none" xmlns="http://www.w3.org/2000/svg">
<g id="Frame 51">
<path id="Exclude" fill-rule="evenodd" clip-rule="evenodd" d="M11.66 0C10.931 0 10.34 0.591035 10.34 1.32H3.52C1.57599 1.32 0 2.89599 0 4.84V9.58257C0 10.9488 0.318076 12.2962 0.929092 13.5181L1.03963 13.7393C1.79706 15.2542 2.97559 16.5184 4.43384 17.38L4.96891 17.6961C6.32479 18.4974 7.8708 18.92 9.44571 18.92H10.34C10.34 24.7521 15.0679 29.48 20.9 29.48V33.88H15.1023C14.2959 33.88 13.5542 34.3212 13.1693 35.0297L9.73844 41.3444C9.55636 41.6423 9.46 41.9848 9.46 42.334V42.4977C9.46 42.8961 9.61823 43.2782 9.9 43.56C10.1818 43.8418 10.5639 44 10.9623 44H33.9177C34.3161 44 34.6982 43.8418 34.98 43.56C35.2618 43.2782 35.42 42.8961 35.42 42.4977V42.334C35.42 41.9848 35.3236 41.6423 35.1416 41.3444L31.2233 34.9328C30.8237 34.2789 30.1126 33.88 29.3462 33.88H23.98V29.48C29.8121 29.48 34.54 24.7521 34.54 18.92H35.3376C37.111 18.92 38.8431 18.3842 40.3068 17.3827L40.5092 17.2442C41.6471 16.4656 42.5862 15.4305 43.2506 14.2224L43.5707 13.6405C44.2853 12.3413 44.66 10.8825 44.66 9.39963V4.84C44.66 2.89599 43.084 1.32 41.14 1.32H34.54C34.54 0.591035 33.949 0 33.22 0H11.66ZM35.242 16.06H34.54V4.4H40.7C41.429 4.4 42.02 4.99103 42.02 5.72V9.65196C42.02 10.8197 41.687 11.9633 41.0601 12.9484C40.6763 13.5515 40.1902 14.0829 39.6236 14.5188L39.5048 14.6101C38.2827 15.5503 36.7839 16.06 35.242 16.06ZM16.3967 36.96H28.2633C28.7427 36.96 29.1844 37.2199 29.4172 37.6389L31.0585 40.5931C31.1399 40.7397 31.0339 40.92 30.8661 40.92H13.7939C13.6261 40.92 13.5201 40.7397 13.6015 40.5931L15.2428 37.6389C15.4756 37.2199 15.9173 36.96 16.3967 36.96ZM10.34 4.4V16.06H9.44206C7.89003 16.06 6.36851 15.5004 5.17612 14.5068C4.66694 14.0825 4.21889 13.5753 3.863 13.0161C3.20794 11.9868 2.86 10.7919 2.86 9.57183V5.72C2.86 4.99103 3.45104 4.4 4.18 4.4H10.34ZM22.6372 7.84577C22.5032 7.44541 21.9368 7.44541 21.8028 7.84577L20.7563 10.9708C20.6966 11.1488 20.5307 11.2693 20.3429 11.271L17.0475 11.3007C16.6254 11.3044 16.4504 11.843 16.7897 12.0943L19.4383 14.0553C19.5891 14.167 19.6525 14.3621 19.5961 14.5411L18.606 17.6844C18.4791 18.087 18.9373 18.42 19.2812 18.1748L21.9646 16.2618C22.1174 16.1529 22.3226 16.1529 22.4754 16.2618L25.1588 18.1748C25.5027 18.42 25.9609 18.087 25.834 17.6844L24.8439 14.5411C24.7875 14.3621 24.8509 14.167 25.0017 14.0553L27.6503 12.0943C27.9896 11.843 27.8146 11.3044 27.3925 11.3007L24.0971 11.271C23.9093 11.2693 23.7434 11.1488 23.6837 10.9708L22.6372 7.84577Z" fill="#FF8A35"/>
</g>
</svg>
