<svg width="25" height="21" viewBox="0 0 25 21" fill="none" xmlns="http://www.w3.org/2000/svg">
<path id="Vector" d="M3.75 5.25C3.75 3.85761 4.27678 2.52226 5.21447 1.53769C6.15215 0.553123 7.42392 0 8.75 0C10.0761 0 11.3479 0.553123 12.2855 1.53769C13.2232 2.52226 13.75 3.85761 13.75 5.25C13.75 6.64239 13.2232 7.97775 12.2855 8.96231C11.3479 9.94688 10.0761 10.5 8.75 10.5C7.42392 10.5 6.15215 9.94688 5.21447 8.96231C4.27678 7.97775 3.75 6.64239 3.75 5.25ZM0 19.7818C0 15.7418 3.11719 12.4688 6.96484 12.4688H10.5352C14.3828 12.4688 17.5 15.7418 17.5 19.7818C17.5 20.4545 16.9805 21 16.3398 21H1.16016C0.519531 21 0 20.4545 0 19.7818ZM19.6875 12.7969V10.1719H17.1875C16.668 10.1719 16.25 9.73301 16.25 9.1875C16.25 8.64199 16.668 8.20312 17.1875 8.20312H19.6875V5.57812C19.6875 5.03262 20.1055 4.59375 20.625 4.59375C21.1445 4.59375 21.5625 5.03262 21.5625 5.57812V8.20312H24.0625C24.582 8.20312 25 8.64199 25 9.1875C25 9.73301 24.582 10.1719 24.0625 10.1719H21.5625V12.7969C21.5625 13.3424 21.1445 13.7812 20.625 13.7812C20.1055 13.7812 19.6875 13.3424 19.6875 12.7969Z" fill="#FF8A35"/>
</svg>
