<svg width="41" height="43" viewBox="0 0 41 43" fill="none" xmlns="http://www.w3.org/2000/svg">
<g id="Vector">
<path d="M16.7309 19.3462C19.2606 19.3462 21.6868 18.3534 23.4756 16.5862C25.2644 14.819 26.2693 12.4222 26.2693 9.92308C26.2693 7.42392 25.2644 5.02713 23.4756 3.25996C21.6868 1.49279 19.2606 0.5 16.7309 0.5C14.2011 0.5 11.775 1.49279 9.98617 3.25996C8.19736 5.02713 7.19242 7.42392 7.19242 9.92308C7.19242 12.4222 8.19736 14.819 9.98617 16.5862C11.775 18.3534 14.2011 19.3462 16.7309 19.3462ZM13.3254 22.8798C5.98521 22.8798 0.0385742 28.7545 0.0385742 36.0059C0.0385742 37.2132 1.02968 38.1923 2.2518 38.1923H31.21C32.4321 38.1923 33.4232 37.2132 33.4232 36.0059C33.4232 28.7545 27.4766 22.8798 20.1364 22.8798H13.3254Z" fill="#1E3050"/>
<path d="M40.9616 34.4231C40.9616 38.8838 37.3455 42.5 32.8847 42.5C28.424 42.5 24.8078 38.8838 24.8078 34.4231C24.8078 29.9623 28.424 26.3462 32.8847 26.3462C37.3455 26.3462 40.9616 29.9623 40.9616 34.4231Z" fill="white"/>
<path d="M27.8169 36.0068C26.9422 36.0068 26.2331 35.2977 26.2331 34.4231C26.2331 33.5484 26.9422 32.8394 27.8169 32.8394H31.301V29.3552C31.301 28.4805 32.0101 27.7715 32.8847 27.7715C33.7594 27.7715 34.4684 28.4805 34.4684 29.3552V32.8394H37.9526C38.8273 32.8394 39.5363 33.5484 39.5363 34.4231C39.5363 35.2977 38.8273 36.0068 37.9526 36.0068H34.4684V39.4909C34.4684 40.3656 33.7594 41.0747 32.8847 41.0747C32.0101 41.0747 31.301 40.3656 31.301 39.491V36.0068H27.8169Z" fill="#1E3050"/>
</g>
</svg>
