<svg width="41" height="43" viewBox="0 0 41 43" fill="none" xmlns="http://www.w3.org/2000/svg">
<g id="Vector">
<path d="M16.7309 19.3462C19.2606 19.3462 21.6868 18.3534 23.4756 16.5862C25.2644 14.819 26.2693 12.4222 26.2693 9.92308C26.2693 7.42392 25.2644 5.02713 23.4756 3.25996C21.6868 1.49279 19.2606 0.5 16.7309 0.5C14.2011 0.5 11.775 1.49279 9.98617 3.25996C8.19736 5.02713 7.19242 7.42392 7.19242 9.92308C7.19242 12.4222 8.19736 14.819 9.98617 16.5862C11.775 18.3534 14.2011 19.3462 16.7309 19.3462ZM13.3254 22.8798C5.98521 22.8798 0.0385742 28.7545 0.0385742 36.0059C0.0385742 37.2132 1.02968 38.1923 2.2518 38.1923H31.21C32.4321 38.1923 33.4232 37.2132 33.4232 36.0059C33.4232 28.7545 27.4766 22.8798 20.1364 22.8798H13.3254Z" fill="#03A403"/>
<path d="M40.9616 34.4231C40.9616 38.8838 37.3455 42.5 32.8847 42.5C28.424 42.5 24.8078 38.8838 24.8078 34.4231C24.8078 29.9623 28.424 26.3462 32.8847 26.3462C37.3455 26.3462 40.9616 29.9623 40.9616 34.4231Z" fill="white"/>
<path d="M38.5156 31.5664C38.9707 31.038 38.8999 30.2383 38.3593 29.798C37.8399 29.3749 37.0783 29.4415 36.6402 29.9483L31.3518 36.0656C31.1994 36.2418 30.9346 36.265 30.7539 36.1179L28.9604 34.6572C28.4443 34.2368 27.6875 34.303 27.2522 34.8066C26.7983 35.3315 26.868 36.1276 27.406 36.5658L30.3075 38.9288C30.9111 39.4204 31.7948 39.3498 32.3126 38.7685L32.3463 38.7308L38.5156 31.5664Z" fill="#03A403"/>
</g>
</svg>
