<svg width="33" height="18" viewBox="0 0 33 18" fill="none" xmlns="http://www.w3.org/2000/svg">
<path id="Arrow 1" d="M2 7.9C1.39249 7.9 0.9 8.39249 0.9 9C0.9 9.60751 1.39249 10.1 2 10.1L2 7.9ZM31.7778 9.77782C32.2074 9.34824 32.2074 8.65176 31.7778 8.22219L24.7775 1.22183C24.3479 0.792251 23.6514 0.792251 23.2218 1.22183C22.7923 1.6514 22.7923 2.34789 23.2218 2.77746L29.4444 9L23.2218 15.2225C22.7922 15.6521 22.7922 16.3486 23.2218 16.7782C23.6514 17.2078 24.3479 17.2078 24.7775 16.7782L31.7778 9.77782ZM2 10.1L31 10.1L31 7.9L2 7.9L2 10.1Z" fill="#D6F7D2"/>
</svg>
