<svg width="86" height="86" viewBox="0 0 86 86" fill="none" xmlns="http://www.w3.org/2000/svg">
<g id="Award">
<path id="Vector" d="M43 83.3125C65.264 83.3125 83.3125 65.264 83.3125 43C83.3125 20.736 65.264 2.6875 43 2.6875C20.736 2.6875 2.6875 20.736 2.6875 43C2.6875 65.264 20.736 83.3125 43 83.3125Z" fill="#382673"/>
<path id="Vector_2" d="M43 76.5938C61.5533 76.5938 76.5938 61.5533 76.5938 43C76.5938 24.4467 61.5533 9.40625 43 9.40625C24.4467 9.40625 9.40625 24.4467 9.40625 43C9.40625 61.5533 24.4467 76.5938 43 76.5938Z" fill="#473080"/>
<path id="Vector_3" d="M61.1406 37.0199C51.0625 33.3246 41.1187 29.0246 31.3766 24.0527C25.5313 39.5059 22.3063 56.2355 22.1719 73.5699C27.6141 70.9496 33.1234 68.5309 38.7 66.3809C43.8734 70.0762 49.2484 73.3684 54.6234 76.123C54.4891 62.3496 56.7734 49.1137 61.1406 37.0199Z" fill="#D44A90"/>
<path id="Vector_4" d="M25.2625 45.0832C25.7328 45.4863 26.2703 45.8223 26.875 45.9566C29.025 46.4941 30.5703 48.8457 30.6375 51.6676C30.839 55.9676 34.5343 58.3863 37.4234 56.3707C39.3718 55.0941 41.7234 55.6988 43.2015 57.5801C45.4859 60.5363 49.5171 59.6629 50.8609 56.3707C51.8015 54.2207 54.0187 53.1457 56.1015 53.6832C56.2359 53.7504 56.3703 53.7504 56.5046 53.7504C57.5796 47.9723 59.125 42.3285 61.0734 36.9535C50.9953 33.2582 41.0515 28.9582 31.3093 23.9863C28.8234 30.8395 26.7406 37.827 25.2625 45.0832Z" fill="#A72973"/>
<path id="Vector_5" d="M58.6546 36.0799C50.2562 32.9221 41.9921 29.2939 33.8625 25.2627C28.3531 39.9096 25.1953 55.833 24.9265 72.2939C29.4953 70.2111 34.064 68.1955 38.7 66.3814C43 69.4721 47.4343 72.2268 51.9359 74.7127C51.9359 61.0736 54.2875 48.0393 58.6546 36.0799Z" fill="#F15A9E"/>
<path id="Vector_6" d="M30.6376 51.6674C30.8392 55.9674 34.4673 57.5799 37.4235 55.5643C39.372 54.2877 41.7235 54.8924 43.2017 56.8408C45.4188 59.7971 49.5845 59.7299 50.9282 56.3705C51.5329 55.0268 52.6079 54.0861 53.8845 53.683C55.0267 47.5689 56.6392 41.6564 58.6548 36.0127C50.2563 32.9221 41.9923 29.2939 33.8626 25.2627C31.3095 32.0486 29.2938 39.0361 27.7485 46.2924C29.4282 47.233 30.5704 49.2486 30.6376 51.6674Z" fill="#D44A90"/>
<path id="Vector_7" d="M52.675 11.9596C55.6313 10.4143 59.2594 12.4971 59.3938 15.8565C59.5282 18.0736 61.1406 19.8205 63.2906 20.1565C66.5828 20.694 68.2625 24.4565 66.4485 27.2783C65.2391 29.0924 65.5078 31.5111 67.0532 33.0565C69.4047 35.408 68.5985 39.4393 65.4407 40.6486C63.425 41.4549 62.2156 43.5377 62.5516 45.6877C63.0891 48.9799 59.9985 51.7346 56.7735 50.9283C54.6235 50.3908 52.4063 51.3315 51.4656 53.3471C49.9203 56.3705 45.8219 56.7736 43.7391 54.1533C42.3281 52.4736 39.9766 51.9361 38.0281 52.944C35.0719 54.4893 31.4438 52.4065 31.3094 49.0471C31.175 46.8299 29.5625 45.083 27.4125 44.7471C24.1203 44.2096 22.4406 40.4471 24.2547 37.6252C25.4641 35.8111 25.1953 33.3924 23.65 31.8471C21.2985 29.4955 22.1047 25.4643 25.2625 24.2549C27.2781 23.4486 28.4875 21.3658 28.1516 19.2158C27.6141 15.9236 30.7047 13.169 33.9297 13.9752C36.0797 14.5127 38.2969 13.5721 39.2375 11.5565C40.7828 8.53302 44.8813 8.1299 46.9641 10.7502C48.3078 12.4299 50.7266 12.9002 52.675 11.9596Z" fill="#00C2A9"/>
<path id="Vector_8" d="M61.1599 35.7518C62.9917 27.0366 57.4116 18.4866 48.6965 16.6548C39.9813 14.823 31.4313 20.4031 29.5995 29.1182C27.7677 37.8334 33.3477 46.3834 42.0629 48.2152C50.7781 50.047 59.3281 44.467 61.1599 35.7518Z" fill="#00A58C"/>
<path id="Vector_9" d="M29.9657 30.5702C31.7797 21.8359 40.3125 16.2593 49.0469 18.0734C54.9594 19.3499 59.461 23.6499 61.1407 29.0249C59.8641 22.9781 55.0938 17.939 48.711 16.5952C39.9766 14.7812 31.3766 20.4249 29.5625 29.0921C28.9578 31.914 29.1594 34.6687 29.9657 37.2218C29.4953 35.0718 29.4953 32.8546 29.9657 30.5702Z" fill="#037C68"/>
<path id="Vector_10" d="M43.9406 32.9222L40.6484 27.8159C40.4468 27.48 40.0437 27.4128 39.7078 27.6144L36.6843 29.5628C36.3484 29.7644 36.2812 30.1675 36.4828 30.5034L42.5296 39.7081C42.7312 40.044 43.1343 40.1112 43.4703 39.9097L55.4296 32.1159C55.7656 31.9144 55.8328 31.5112 55.6312 31.1753L53.6828 28.1519C53.4812 27.8159 53.0781 27.7487 52.7421 27.9503L44.8812 33.0565C44.5453 33.3253 44.1421 33.1909 43.9406 32.9222Z" fill="white"/>
<path id="Vector_11" d="M15.05 33.2582L15.4532 32.2504C15.5875 31.9816 15.9907 31.9816 16.0579 32.2504L16.461 33.2582C16.7969 34.0645 17.4016 34.6691 18.2079 35.0051L19.2157 35.4082C19.4844 35.5426 19.4844 35.9457 19.2157 36.0129L18.1407 36.3488C17.3344 36.6848 16.7297 37.2895 16.3938 38.0957L15.9907 39.1035C15.8563 39.3723 15.4532 39.3723 15.386 39.1035L14.9829 38.0957C14.6469 37.2895 14.0422 36.6848 13.236 36.3488L12.2282 35.9457C11.9594 35.8113 11.9594 35.4082 12.2282 35.341L13.236 34.9379C14.1094 34.6691 14.7141 33.9973 15.05 33.2582ZM62.7532 60.1332L63.1563 59.1254C63.2907 58.8566 63.6938 58.8566 63.761 59.1254L64.1641 60.1332C64.5 60.9395 65.1047 61.5441 65.911 61.8801L66.9188 62.2832C67.1875 62.4176 67.1875 62.8207 66.9188 62.8879L65.8438 63.2238C65.0375 63.5598 64.4329 64.1645 64.0969 64.9707L63.6938 65.9785C63.5594 66.2473 63.1563 66.2473 63.0891 65.9785L62.686 64.9707C62.35 64.1645 61.7454 63.5598 60.9391 63.2238L59.9313 62.8207C59.6625 62.6863 59.6625 62.2832 59.9313 62.216L60.9391 61.8129C61.8125 61.5441 62.4172 60.8723 62.7532 60.1332Z" fill="#FFDE39"/>
<path id="Vector_12" d="M15.4531 53.0781C16.1953 53.0781 16.7969 52.4765 16.7969 51.7344C16.7969 50.9922 16.1953 50.3906 15.4531 50.3906C14.711 50.3906 14.1094 50.9922 14.1094 51.7344C14.1094 52.4765 14.711 53.0781 15.4531 53.0781Z" fill="white"/>
<path id="Vector_13" d="M71.2188 48.375C71.9609 48.375 72.5625 47.7734 72.5625 47.0312C72.5625 46.2891 71.9609 45.6875 71.2188 45.6875C70.4766 45.6875 69.875 46.2891 69.875 47.0312C69.875 47.7734 70.4766 48.375 71.2188 48.375Z" fill="white"/>
</g>
</svg>
