<svg width="86" height="86" viewBox="0 0 86 86" fill="none" xmlns="http://www.w3.org/2000/svg">
<g id="Award">
<path id="Vector" d="M43 83.3125C65.264 83.3125 83.3125 65.264 83.3125 43C83.3125 20.736 65.264 2.6875 43 2.6875C20.736 2.6875 2.6875 20.736 2.6875 43C2.6875 65.264 20.736 83.3125 43 83.3125Z" fill="#382673"/>
<path id="Vector_2" d="M43 76.5938C61.5533 76.5938 76.5938 61.5533 76.5938 43C76.5938 24.4467 61.5533 9.40625 43 9.40625C24.4467 9.40625 9.40625 24.4467 9.40625 43C9.40625 61.5533 24.4467 76.5938 43 76.5938Z" fill="#473080"/>
<path id="Vector_3" d="M32.9219 82.0359C36.1469 82.8422 39.5062 83.3125 43 83.3125C44.1422 83.3125 45.2172 83.2453 46.3594 83.1781V52.675L32.9219 43V82.0359Z" fill="#FFDE39"/>
<path id="Vector_4" d="M39.6406 20.1563V41.8579C39.6406 43.4704 38.5656 44.9485 37.0203 45.2172C34.8031 45.6876 32.9219 44.0751 32.9219 41.9922V20.2907C32.9219 18.6782 33.9969 17.2001 35.5422 16.9313C37.7594 16.3938 39.6406 18.0735 39.6406 20.1563Z" fill="#F9A74E"/>
<path id="Vector_5" opacity="0.2" d="M38.9688 18.1406L33.6609 24.7922C33.1906 25.3969 32.9219 26.1359 32.9219 26.875V36.8859C32.9219 38.4984 33.9969 39.9766 35.5422 40.2453C37.6922 40.7156 39.6406 39.0359 39.6406 36.9531V20.1562C39.6406 19.4172 39.3719 18.6781 38.9688 18.1406Z" fill="#382673"/>
<path id="Vector_6" d="M46.3594 23.5158C46.3594 24.2549 46.0906 24.9939 45.6203 25.5986L39.6406 33.0564V41.858C39.6406 43.4705 38.5656 44.9486 37.0203 45.2174C34.8031 45.6877 32.9219 44.0752 32.9219 41.9924V31.9142C32.9219 31.1752 33.1906 30.4361 33.6609 29.8314L40.3797 21.433C41.5219 19.9549 43.6719 19.7533 45.0828 20.8955C45.9562 21.5002 46.3594 22.508 46.3594 23.5158Z" fill="#FEC632"/>
<path id="Vector_7" opacity="0.1" d="M45.2171 26.1357C38.364 26.6732 32.989 32.4514 32.989 39.4389C32.989 41.1186 33.325 42.7311 33.8625 44.2092C34.6687 45.0826 35.8109 45.4857 37.1546 45.217C38.6328 44.8811 39.6406 43.4029 39.6406 41.8576V33.1232L45.2171 26.1357Z" fill="#382673"/>
<path id="Vector_8" d="M55.6313 46.8973C53.5484 52.6754 47.1656 52.7426 46.2922 52.7426C40.7828 52.7426 36.2812 48.241 36.2812 42.7316C36.2812 37.2223 40.7828 32.7207 46.2922 32.7207C51.2641 32.7207 53.75 35.6098 53.75 35.6098" stroke="#FFDE39" stroke-width="10" stroke-miterlimit="10" stroke-linecap="round" stroke-linejoin="round"/>
<path id="Vector_9" d="M32.9219 69.2031H46.4937C47.1656 69.2031 47.7031 68.6656 47.7031 67.9937V62.35C47.7031 61.6781 47.1656 61.1406 46.4937 61.1406H32.9219V69.2031Z" fill="#0CAFE8"/>
<path id="Vector_10" d="M31.5781 59.125H30.9062C30.5031 59.125 30.2344 59.3937 30.2344 59.7969V60.4688H32.25V59.7969C32.25 59.3937 31.9813 59.125 31.5781 59.125Z" fill="white"/>
<path id="Vector_11" d="M44.6797 66.1797C45.2363 66.1797 45.6875 65.7285 45.6875 65.1719C45.6875 64.6153 45.2363 64.1641 44.6797 64.1641C44.1231 64.1641 43.6719 64.6153 43.6719 65.1719C43.6719 65.7285 44.1231 66.1797 44.6797 66.1797Z" fill="#0B90D3"/>
<path id="Vector_12" d="M40.6484 66.1797C41.205 66.1797 41.6562 65.7285 41.6562 65.1719C41.6562 64.6153 41.205 64.1641 40.6484 64.1641C40.0918 64.1641 39.6406 64.6153 39.6406 65.1719C39.6406 65.7285 40.0918 66.1797 40.6484 66.1797Z" fill="#0B90D3"/>
<path id="Vector_13" opacity="0.2" d="M31.5781 59.125H30.9062C30.5031 59.125 30.2344 59.3937 30.2344 59.7969V60.4688H32.25V59.7969C32.25 59.3937 31.9813 59.125 31.5781 59.125Z" fill="#382673"/>
<path id="Vector_14" d="M30.9062 71.2188H31.5781C32.3172 71.2188 32.9219 70.6141 32.9219 69.875V61.1406C32.9219 60.4016 32.3172 59.7969 31.5781 59.7969H30.9062C30.1672 59.7969 29.5625 60.4016 29.5625 61.1406V69.875C29.5625 70.6141 30.1672 71.2188 30.9062 71.2188Z" fill="white"/>
<path id="Vector_15" opacity="0.2" d="M31.5781 59.7969H30.9062C30.7719 59.7969 30.7047 59.7969 30.5703 59.8641C31.175 59.9984 31.5781 60.5359 31.5781 61.1406V69.875C31.5781 70.4797 31.175 71.0172 30.5703 71.1516C30.7047 71.1516 30.7719 71.2188 30.9062 71.2188H31.5781C32.3172 71.2188 32.9219 70.6141 32.9219 69.875V61.1406C32.9219 60.4016 32.3172 59.7969 31.5781 59.7969Z" fill="#382673"/>
<path id="Vector_16" d="M61.3422 21.9033L61.9469 20.358C62.1485 19.9549 62.7532 19.9549 62.8875 20.358L63.4922 21.9033C63.9625 23.1127 64.9032 24.0533 66.1125 24.5236L67.6579 25.1283C68.061 25.3299 68.061 25.9346 67.6579 26.0689L66.1125 26.6736C64.9032 27.1439 63.9625 28.0846 63.4922 29.2939L62.8875 30.8393C62.686 31.2424 62.0813 31.2424 61.9469 30.8393L61.3422 29.2939C60.8719 28.0846 59.9313 27.1439 58.7219 26.6736L57.1766 26.0689C56.7735 25.8674 56.7735 25.2627 57.1766 25.1283L58.7219 24.5236C59.9313 24.0533 60.8719 23.1127 61.3422 21.9033ZM17.7375 39.9768L18.1407 38.9689C18.275 38.7002 18.6782 38.7002 18.7454 38.9689L19.1485 39.9768C19.4844 40.783 20.0891 41.3877 20.8954 41.7236L21.9032 42.1268C22.1719 42.2611 22.1719 42.6643 21.9032 42.7314L20.8282 43.0674C20.0219 43.4033 19.4172 44.008 19.0813 44.8143L18.6782 45.8221C18.5438 46.0908 18.1407 46.0908 18.0735 45.8221L17.6704 44.8143C17.3344 44.008 16.7297 43.4033 15.9235 43.0674L14.9157 42.6643C14.6469 42.5299 14.6469 42.1268 14.9157 42.0596L15.9235 41.6564C16.7969 41.3877 17.4016 40.7158 17.7375 39.9768Z" fill="#00C2A9"/>
<path id="Vector_17" d="M66.5156 45.0156C67.2578 45.0156 67.8594 44.414 67.8594 43.6719C67.8594 42.9297 67.2578 42.3281 66.5156 42.3281C65.7735 42.3281 65.1719 42.9297 65.1719 43.6719C65.1719 44.414 65.7735 45.0156 66.5156 45.0156Z" fill="white"/>
<path id="Vector_18" d="M24.1875 28.8906C24.9296 28.8906 25.5312 28.289 25.5312 27.5469C25.5312 26.8047 24.9296 26.2031 24.1875 26.2031C23.4454 26.2031 22.8438 26.8047 22.8438 27.5469C22.8438 28.289 23.4454 28.8906 24.1875 28.8906Z" fill="white"/>
</g>
</svg>
