<svg width="86" height="86" viewBox="0 0 86 86" fill="none" xmlns="http://www.w3.org/2000/svg">
<g id="Bottle">
<path id="Vector" d="M43 83.3125C65.264 83.3125 83.3125 65.264 83.3125 43C83.3125 20.736 65.264 2.6875 43 2.6875C20.736 2.6875 2.6875 20.736 2.6875 43C2.6875 65.264 20.736 83.3125 43 83.3125Z" fill="#382673"/>
<path id="Vector_2" d="M43 76.5938C61.5533 76.5938 76.5938 61.5533 76.5938 43C76.5938 24.4467 61.5533 9.40625 43 9.40625C24.4467 9.40625 9.40625 24.4467 9.40625 43C9.40625 61.5533 24.4467 76.5938 43 76.5938Z" fill="#473080"/>
<path id="Vector_3" d="M52.4062 34.2656H33.5938V75.9219C33.5938 76.6609 34.1984 77.2656 34.9375 77.2656H51.0625C51.8016 77.2656 52.4062 76.6609 52.4062 75.9219V34.2656Z" fill="#007BC6"/>
<path id="Vector_4" d="M66.5156 36.2812H77.9375L73.9062 43.6719L77.9375 51.0625H66.5156V36.2812Z" fill="#D44A90"/>
<path id="Vector_5" d="M66.5156 36.2812L68.5312 38.9688V39.6406H66.5156V36.2812Z" fill="#A72973"/>
<path id="Vector_6" d="M68.5312 53.75H43V38.9688H68.5312V53.75Z" fill="#F15A9E"/>
<path id="Vector_7" opacity="0.4" d="M33.5938 34.2656V75.9219C33.5938 76.6609 34.1984 77.2656 34.9375 77.2656H36.2812V34.2656H33.5938Z" fill="#0CAFE8"/>
<path id="Vector_8" d="M19.4844 36.2812H8.0625L12.0938 43.6719L8.0625 51.0625H19.4844V36.2812Z" fill="#D44A90"/>
<path id="Vector_9" d="M19.4844 36.2812L17.4688 38.9688V39.6406H19.4844V36.2812Z" fill="#A72973"/>
<path id="Vector_10" d="M17.4688 38.9688H43V53.75H17.4688V38.9688Z" fill="#F15A9E"/>
<path id="Vector_11" opacity="0.5" d="M49.7188 34.2656V77.2656H51.0625C51.8016 77.2656 52.4062 76.6609 52.4062 75.9219V34.2656H49.7188Z" fill="#382673"/>
<path id="Vector_12" d="M47.0312 16.1922V11.4219H38.9688V16.1922C34.6688 17.8047 31.5781 21.9703 31.5781 26.875V35.6094C31.5781 36.3484 32.1828 36.9531 32.9219 36.9531H53.0781C53.8172 36.9531 54.4219 36.3484 54.4219 35.6094V26.875C54.4219 21.9703 51.3312 17.8047 47.0312 16.1922Z" fill="#0CAFE8"/>
<path id="Vector_13" d="M47.0312 16.1922V11.4219H45.6875V16.1922C49.7188 18.8125 51.0625 22.8438 51.0625 26.875V35.6094C51.0625 36.3484 50.4578 36.9531 49.7188 36.9531H53.0781C53.8172 36.9531 54.4219 36.3484 54.4219 35.6094V26.875C54.4219 21.9703 51.3313 17.8047 47.0312 16.1922Z" fill="#0B90D3"/>
<path id="Vector_14" opacity="0.3" d="M40.9844 11.4219V16.8641C36.9531 19.4844 35.6094 23.5156 35.6094 27.5469" stroke="white" stroke-width="2" stroke-miterlimit="10" stroke-linecap="round" stroke-linejoin="round"/>
<path id="Vector_15" d="M53.0781 39.6406H32.9219C32.1828 39.6406 31.5781 40.2453 31.5781 40.9844V44.3438C31.5781 45.0828 32.1828 45.6875 32.9219 45.6875H53.0781C53.8172 45.6875 54.4219 45.0828 54.4219 44.3438V40.9844C54.4219 40.2453 53.8172 39.6406 53.0781 39.6406ZM53.0781 47.0312H32.9219C32.1828 47.0312 31.5781 47.6359 31.5781 48.375V52.4062C31.5781 53.1453 32.1828 53.75 32.9219 53.75H53.0781C53.8172 53.75 54.4219 53.1453 54.4219 52.4062V48.375C54.4219 47.6359 53.8172 47.0312 53.0781 47.0312ZM53.0781 55.0938H32.9219C32.1828 55.0938 31.5781 55.6984 31.5781 56.4375V59.7969C31.5781 60.5359 32.1828 61.1406 32.9219 61.1406H53.0781C53.8172 61.1406 54.4219 60.5359 54.4219 59.7969V56.4375C54.4219 55.6984 53.8172 55.0938 53.0781 55.0938Z" fill="#0CAFE8"/>
<path id="Vector_16" d="M53.0781 55.0938H49.7188C50.4578 55.0938 51.0625 55.6984 51.0625 56.4375V59.7969C51.0625 60.5359 50.4578 61.1406 49.7188 61.1406H53.0781C53.8172 61.1406 54.4219 60.5359 54.4219 59.7969V56.4375C54.4219 55.6984 53.8172 55.0938 53.0781 55.0938Z" fill="#0B90D3"/>
<path id="Vector_17" d="M53.0781 62.4844H32.9219C32.1828 62.4844 31.5781 63.0891 31.5781 63.8281V67.1875C31.5781 67.9266 32.1828 68.5312 32.9219 68.5312H53.0781C53.8172 68.5312 54.4219 67.9266 54.4219 67.1875V63.8281C54.4219 63.0891 53.8172 62.4844 53.0781 62.4844Z" fill="#0CAFE8"/>
<path id="Vector_18" d="M53.0781 62.4844H49.7188C50.4578 62.4844 51.0625 63.0891 51.0625 63.8281V67.1875C51.0625 67.9266 50.4578 68.5312 49.7188 68.5312H53.0781C53.8172 68.5312 54.4219 67.9266 54.4219 67.1875V63.8281C54.4219 63.0891 53.8172 62.4844 53.0781 62.4844Z" fill="#0B90D3"/>
<path id="Vector_19" d="M53.0781 69.875H32.9219C32.1828 69.875 31.5781 70.4797 31.5781 71.2188V74.5781C31.5781 75.3172 32.1828 75.9219 32.9219 75.9219H53.0781C53.8172 75.9219 54.4219 75.3172 54.4219 74.5781V71.2188C54.4219 70.4797 53.8172 69.875 53.0781 69.875Z" fill="#0CAFE8"/>
<path id="Vector_20" d="M53.0781 69.875H49.7188C50.4578 69.875 51.0625 70.4797 51.0625 71.2188V74.5781C51.0625 75.3172 50.4578 75.9219 49.7188 75.9219H53.0781C53.8172 75.9219 54.4219 75.3172 54.4219 74.5781V71.2188C54.4219 70.4797 53.8172 69.875 53.0781 69.875Z" fill="#0B90D3"/>
<path id="Vector_21" d="M53.0781 53.75H32.9219C32.1828 53.75 31.5781 53.1453 31.5781 52.4062V40.3125C31.5781 39.5734 32.1828 38.9688 32.9219 38.9688H53.0781C53.8172 38.9688 54.4219 39.5734 54.4219 40.3125V52.4062C54.4219 53.1453 53.8172 53.75 53.0781 53.75Z" fill="white"/>
<path id="Vector_22" opacity="0.2" d="M53.0781 38.9688H49.7188C50.4578 38.9688 51.0625 39.5734 51.0625 40.3125V52.4062C51.0625 53.1453 50.4578 53.75 49.7188 53.75H53.0781C53.8172 53.75 54.4219 53.1453 54.4219 52.4062V40.3125C54.4219 39.5734 53.8172 38.9688 53.0781 38.9688Z" fill="#382673"/>
<path id="Vector_23" d="M38.9688 11.4219H47.0312V14.1094H38.9688V11.4219Z" fill="#007BC6"/>
<path id="Vector_24" d="M47.0312 7.39062H38.9688C38.2297 7.39062 37.625 7.99531 37.625 8.73438V12.7656H48.375V8.73438C48.375 7.99531 47.7703 7.39062 47.0312 7.39062Z" fill="#FFDE39"/>
<path id="Vector_25" d="M47.0312 7.39062H45.0156C45.7547 7.39062 46.3594 7.99531 46.3594 8.73438V12.7656H48.375V8.73438C48.375 7.99531 47.7703 7.39062 47.0312 7.39062Z" fill="#FEC632"/>
<path id="Vector_26" d="M40.3124 49.5172H38.7671V47.1656H36.953V49.5172H35.4077V43.7391H36.953V45.8891H38.7671V43.7391H40.3124V49.5172ZM44.7468 49.5172H41.3202V48.5766L42.3952 47.9047C42.5968 47.7703 42.7983 47.6359 42.9327 47.5688C43.0671 47.5016 43.1343 47.3672 43.2015 47.3C43.2687 47.2328 43.2687 47.1656 43.2687 47.0312C43.2687 46.8297 43.1343 46.7625 42.8655 46.7625C42.5968 46.7625 42.2608 46.8969 41.8577 47.2328L41.1858 46.4266C41.5218 46.1578 41.7905 45.9563 42.1265 45.8891C42.4624 45.8219 42.7311 45.7547 43.1343 45.7547C43.6046 45.7547 43.9405 45.8219 44.2093 46.0234C44.478 46.225 44.6124 46.4937 44.6124 46.8297C44.6124 47.0984 44.5452 47.3 44.4108 47.5688C44.2765 47.8375 44.0077 47.9719 43.6718 48.2406L43.2687 48.375V48.4422H44.6796V49.5172H44.7468ZM50.9952 46.6281C50.9952 47.5688 50.7265 48.3078 50.2562 48.8453C49.7858 49.3828 49.114 49.5844 48.1733 49.5844C47.2999 49.5844 46.5608 49.3156 46.0905 48.8453C45.6202 48.375 45.3515 47.5688 45.3515 46.6281C45.3515 45.6875 45.6202 44.9484 46.0905 44.4109C46.5608 43.8734 47.2327 43.6719 48.1733 43.6719C49.114 43.6719 49.7858 43.9406 50.2562 44.4109C50.7265 44.8812 50.9952 45.6203 50.9952 46.6281ZM47.0312 46.6281C47.0312 47.7703 47.4343 48.3078 48.1733 48.3078C48.5765 48.3078 48.8452 48.1734 49.0468 47.9047C49.2483 47.6359 49.3155 47.2328 49.3155 46.6281C49.3155 46.0234 49.2483 45.6203 49.0468 45.3516C48.8452 45.0828 48.5765 44.9484 48.1733 44.9484C47.4343 44.9484 47.0312 45.4859 47.0312 46.6281Z" fill="#007BC6"/>
<path id="Vector_27" opacity="0.3" d="M35.6094 30.2344V32.25" stroke="white" stroke-width="2" stroke-miterlimit="10" stroke-linecap="round" stroke-linejoin="round"/>
<path id="Vector_28" d="M24.5235 48.577L26.2032 49.4504C26.4719 49.5848 26.7407 49.3832 26.6735 49.1145L26.3375 47.2332L27.6813 45.8895C27.8828 45.6879 27.7485 45.352 27.4797 45.2848L25.5985 45.016L24.725 43.3363C24.5907 43.0676 24.2547 43.0676 24.1203 43.3363L23.2469 45.016L21.5 45.352C21.2313 45.4191 21.0969 45.7551 21.2985 45.9566L22.6422 47.3004L22.3063 49.1816C22.2391 49.4504 22.575 49.652 22.7766 49.5176L24.5235 48.577ZM61.4766 48.577L63.1563 49.4504C63.425 49.5848 63.6938 49.3832 63.6266 49.1145L63.2906 47.2332L64.6344 45.8895C64.836 45.6879 64.7016 45.352 64.4328 45.2848L62.5516 45.016L61.6782 43.3363C61.5438 43.0676 61.2078 43.0676 61.0735 43.3363L60.2 45.016L58.4532 45.352C58.1844 45.4191 58.05 45.7551 58.2516 45.9566L59.5953 47.3004L59.2594 49.1816C59.1922 49.4504 59.5282 49.652 59.7297 49.5176L61.4766 48.577Z" fill="#FFDE39"/>
</g>
</svg>
