<svg width="153" height="140" viewBox="0 0 153 140" fill="none" xmlns="http://www.w3.org/2000/svg">
<g id="Vector">
<path d="M0 7.64419L17.7459 7.64424L34.8744 0L52.003 7.64424L68.823 7.64425L64.3911 35.0803C62.6732 45.7153 57.1185 55.3542 48.7754 62.1775L34.8744 73.5463L20.5756 61.8521C12.4729 55.2254 6.99222 45.936 5.11278 35.6435L0 7.64419Z" fill="#E1F6FF"/>
<path d="M11.8262 16.7464L23.6525 16.7464L35.0674 11.6521L46.4823 16.7464L57.6916 16.7464L55.6275 29.5243C53.9096 40.1593 48.3548 49.7981 40.0118 56.6214L35.0674 60.6651L29.7252 56.2961C21.6225 49.6693 16.1418 40.3799 14.2624 30.0875L11.8262 16.7464Z" fill="#66AEC6"/>
<path d="M84.177 74.0979L101.923 74.098L119.051 66.4537L136.18 74.098L153 74.098L148.568 101.534C146.85 112.169 141.295 121.808 132.952 128.631L119.051 140L104.753 128.306C96.6499 121.679 91.1692 112.39 89.2897 102.097L84.177 74.0979Z" fill="#E1F6FF"/>
<path d="M96.0032 83.2001L107.829 83.2001L119.244 78.1058L130.659 83.2001L141.869 83.2001L139.804 95.978C138.087 106.613 132.532 116.252 124.189 123.075L119.244 127.119L113.902 122.75C105.799 116.123 100.319 106.834 98.4393 96.5412L96.0032 83.2001Z" fill="#66AEC6"/>
<path d="M55.0121 71.3876L90.1951 25.7489L73.9924 59.8238L90.1951 56.4317L47.1422 107.313L68.5915 68.7665L55.0121 71.3876Z" fill="#E1F6FF"/>
</g>
</svg>
