<svg width="46" height="45" viewBox="0 0 46 45" fill="none" xmlns="http://www.w3.org/2000/svg">
<path fill-rule="evenodd" clip-rule="evenodd" d="M12.58 0.5C11.8511 0.5 11.26 1.09104 11.26 1.82H4.44004C2.49603 1.82 0.920044 3.39599 0.920044 5.34V10.0826C0.920044 11.4488 1.23812 12.7962 1.84914 14.0181L1.95967 14.2393C2.7171 15.7542 3.89563 17.0184 5.35388 17.88L5.88895 18.1961C7.24483 18.9974 8.79084 19.42 10.3658 19.42H11.26C11.26 25.2521 15.9879 29.98 21.82 29.98V34.38H16.0224C15.216 34.38 14.4742 34.8212 14.0893 35.5297L10.6585 41.8444C10.4764 42.1423 10.38 42.4848 10.38 42.834V42.9977C10.38 43.3961 10.5383 43.7782 10.82 44.06C11.1018 44.3418 11.4839 44.5 11.8823 44.5H34.8377C35.2362 44.5 35.6183 44.3418 35.9 44.06C36.1818 43.7782 36.34 43.3961 36.34 42.9977V42.834C36.34 42.4848 36.2437 42.1423 36.0616 41.8444L32.1434 35.4328C31.7438 34.7789 31.0327 34.38 30.2662 34.38H24.9V29.98C30.7322 29.98 35.46 25.2521 35.46 19.42H36.2577C38.0311 19.42 39.7631 18.8842 41.2269 17.8827L41.4293 17.7442C42.5672 16.9656 43.5063 15.9305 44.1707 14.7224L44.4908 14.1405C45.2054 12.8413 45.58 11.3825 45.58 9.89963V5.34C45.58 3.39599 44.0041 1.82 42.06 1.82H35.46C35.46 1.09104 34.869 0.5 34.14 0.5H12.58ZM36.162 16.56H35.46V4.9H41.62C42.349 4.9 42.94 5.49103 42.94 6.22V10.152C42.94 11.3197 42.607 12.4633 41.9801 13.4484C41.5963 14.0515 41.1102 14.5829 40.5437 15.0188L40.4249 15.1101C39.2027 16.0503 37.704 16.56 36.162 16.56ZM17.3167 37.46H29.1834C29.6627 37.46 30.1044 37.7199 30.3372 38.1389L31.9785 41.0931C32.0599 41.2397 31.9539 41.42 31.7861 41.42H14.714C14.5462 41.42 14.4402 41.2397 14.5216 41.0931L16.1629 38.1389C16.3957 37.7199 16.8374 37.46 17.3167 37.46ZM11.26 4.9V16.56H10.3621C8.81007 16.56 7.28855 16.0004 6.09617 15.0068C5.58699 14.5825 5.13893 14.0753 4.78304 13.5161C4.12798 12.4868 3.78004 11.2919 3.78004 10.0718V6.22C3.78004 5.49103 4.37108 4.9 5.10004 4.9H11.26ZM23.5573 8.34577C23.4232 7.94541 22.8569 7.94541 22.7228 8.34577L21.6763 11.4708C21.6167 11.6488 21.4507 11.7693 21.263 11.771L17.9676 11.8007C17.5454 11.8044 17.3704 12.343 17.7098 12.5943L20.3584 14.5553C20.5092 14.667 20.5726 14.8621 20.5162 15.0411L19.5261 18.1844C19.3992 18.5871 19.8573 18.92 20.2012 18.6748L22.8846 16.7618C23.0375 16.6529 23.2426 16.6529 23.3955 16.7618L26.0789 18.6748C26.4227 18.92 26.8809 18.5871 26.754 18.1844L25.7639 15.0411C25.7075 14.8621 25.7709 14.667 25.9217 14.5553L28.5703 12.5943C28.9097 12.343 28.7347 11.8044 28.3125 11.8007L25.0171 11.771C24.8294 11.7693 24.6634 11.6488 24.6038 11.4708L23.5573 8.34577Z" fill="#FF8A35"/>
</svg>
