<svg width="44" height="44" viewBox="0 0 44 44" fill="none" xmlns="http://www.w3.org/2000/svg">
<g clip-path="url(#clip0_44_269)">
<path d="M0 22C0 16.1652 2.31785 10.5695 6.44365 6.44365C10.5695 2.31785 16.1652 0 22 0C27.8348 0 33.4305 2.31785 37.5564 6.44365C41.6822 10.5695 44 16.1652 44 22C44 27.8348 41.6822 33.4305 37.5564 37.5564C33.4305 41.6822 27.8348 44 22 44C16.1652 44 10.5695 41.6822 6.44365 37.5564C2.31785 33.4305 0 27.8348 0 22ZM16.182 12.6414C15.5289 13.0023 15.125 13.6984 15.125 14.4375V29.5625C15.125 30.3102 15.5289 30.9977 16.182 31.3586C16.8352 31.7195 17.6258 31.7109 18.2703 31.3156L30.6453 23.7531C31.2555 23.375 31.6336 22.7133 31.6336 21.9914C31.6336 21.2695 31.2555 20.6078 30.6453 20.2297L18.2703 12.6672C17.6344 12.2805 16.8352 12.2633 16.182 12.6242V12.6414Z" fill="#FF8A35"/>
</g>
<defs>
<clipPath id="clip0_44_269">
<rect width="44" height="44" fill="white"/>
</clipPath>
</defs>
</svg>
