<svg width="23" height="24" viewBox="0 0 23 24" fill="none" xmlns="http://www.w3.org/2000/svg">
<g id="clock-rotate-left-solid 1" clip-path="url(#clip0_643_1290)">
<path id="Vector" d="M3.36914 3.86914L1.8418 2.3418C1.16348 1.66348 0 2.14414 0 3.10098V8.04688C0 8.64434 0.480664 9.125 1.07812 9.125H6.02402C6.98535 9.125 7.46602 7.96152 6.7877 7.2832L5.4041 5.89961C6.96289 4.34082 9.11914 3.375 11.5 3.375C16.2617 3.375 20.125 7.23828 20.125 12C20.125 16.7617 16.2617 20.625 11.5 20.625C9.66719 20.625 7.96914 20.0545 6.57207 19.0797C5.9207 18.626 5.02676 18.7832 4.56855 19.4346C4.11035 20.0859 4.27207 20.9799 4.92344 21.4381C6.79219 22.7363 9.06074 23.5 11.5 23.5C17.852 23.5 23 18.352 23 12C23 5.64805 17.852 0.5 11.5 0.5C8.32402 0.5 5.44902 1.78926 3.36914 3.86914ZM11.5 6.25C10.9025 6.25 10.4219 6.73066 10.4219 7.32812V12C10.4219 12.2875 10.5342 12.5615 10.7363 12.7637L13.9707 15.998C14.393 16.4203 15.0758 16.4203 15.4936 15.998C15.9113 15.5758 15.9158 14.893 15.4936 14.4752L12.5736 11.5553V7.32812C12.5736 6.73066 12.093 6.25 11.4955 6.25H11.5Z" fill="#1E3050"/>
</g>
<defs>
<clipPath id="clip0_643_1290">
<rect width="23" height="23" fill="white" transform="translate(0 0.5)"/>
</clipPath>
</defs>
</svg>
