<svg width="15" height="15" viewBox="0 0 15 15" fill="none" xmlns="http://www.w3.org/2000/svg">
<path id="Vector" d="M14.0857 2.89091C14.6323 2.34429 14.6323 1.45658 14.0857 0.909964C13.539 0.363345 12.6513 0.363345 12.1047 0.909964L7.5 5.51905L2.89091 0.914337C2.34429 0.367718 1.45658 0.367718 0.909964 0.914337C0.363345 1.46096 0.363345 2.34866 0.909964 2.89528L5.51905 7.5L0.914337 12.1091C0.367718 12.6557 0.367718 13.5434 0.914337 14.09C1.46096 14.6367 2.34866 14.6367 2.89528 14.09L7.5 9.48095L12.1091 14.0857C12.6557 14.6323 13.5434 14.6323 14.09 14.0857C14.6367 13.539 14.6367 12.6513 14.09 12.1047L9.48095 7.5L14.0857 2.89091Z" fill="#E1F6FF"/>
</svg>
