<svg width="25" height="10" viewBox="0 0 25 10" fill="none" xmlns="http://www.w3.org/2000/svg">
<path id="Ellipse 9" d="M24 0.5C23.2848 1.80597 22.2166 2.96981 20.7143 3.86778M1 0.5C1.71517 1.80597 2.78341 2.96981 4.28574 3.86778M20.7143 3.86778L24 6.5M20.7143 3.86778C19.2407 4.74854 17.3496 5.37352 14.9643 5.62594M14.9643 5.62594C14.1951 5.70734 13.3745 5.75 12.5 5.75C11.6255 5.75 10.805 5.70734 10.0358 5.62594M14.9643 5.62594L17.4286 9.5M10.0358 5.62594L7.57143 9.5M10.0358 5.62594C7.65048 5.37352 5.75929 4.74854 4.28574 3.86778M4.28574 3.86778L1 6.5" stroke="#868686" stroke-linecap="round"/>
</svg>
