<svg width="33" height="23" viewBox="0 0 33 23" fill="none" xmlns="http://www.w3.org/2000/svg">
<path d="M28 7C27.2848 8.30597 26.2166 9.46981 24.7143 10.3678M5 7C5.71517 8.30597 6.78341 9.46981 8.28574 10.3678M24.7143 10.3678L28 13M24.7143 10.3678C23.2407 11.2485 21.3496 11.8735 18.9643 12.1259M18.9643 12.1259C18.1951 12.2073 17.3745 12.25 16.5 12.25C15.6255 12.25 14.805 12.2073 14.0358 12.1259M18.9643 12.1259L21.4286 16M14.0358 12.1259L11.5714 16M14.0358 12.1259C11.6505 11.8735 9.75929 11.2485 8.28574 10.3678M8.28574 10.3678L5 13" stroke="#E1F6FF" stroke-linecap="round"/>
</svg>
