<svg width="199" height="122" viewBox="0 0 199 122" fill="none" xmlns="http://www.w3.org/2000/svg">
<g filter="url(#filter0_d_6_136)">
<path d="M164.378 61.2513C162.422 61.2513 160.522 61.491 158.704 61.9348C159.12 60.1497 159.33 58.3239 159.331 56.4921C159.331 43.096 148.357 32.2363 134.819 32.2363C129.877 32.2295 125.05 33.7079 120.976 36.4758C116.378 18.9445 100.279 6 81.1244 6C58.3866 6 39.9538 24.24 39.9538 46.7399C22.8587 46.7399 9 60.4533 9 77.37C9 94.2863 22.8583 108 39.9538 108H164.378C177.424 108 188 97.5349 188 84.6255C188 71.7164 177.424 61.2513 164.378 61.2513Z" fill="#B0E9FF"/>
</g>
<defs>
<filter id="filter0_d_6_136" x="0" y="0" width="199" height="122" filterUnits="userSpaceOnUse" color-interpolation-filters="sRGB">
<feFlood flood-opacity="0" result="BackgroundImageFix"/>
<feColorMatrix in="SourceAlpha" type="matrix" values="0 0 0 0 0 0 0 0 0 0 0 0 0 0 0 0 0 0 127 0" result="hardAlpha"/>
<feOffset dx="1" dy="4"/>
<feGaussianBlur stdDeviation="5"/>
<feComposite in2="hardAlpha" operator="out"/>
<feColorMatrix type="matrix" values="0 0 0 0 0 0 0 0 0 0 0 0 0 0 0 0 0 0 0.25 0"/>
<feBlend mode="normal" in2="BackgroundImageFix" result="effect1_dropShadow_6_136"/>
<feBlend mode="normal" in="SourceGraphic" in2="effect1_dropShadow_6_136" result="shape"/>
</filter>
</defs>
</svg>
