<svg width="39" height="34" viewBox="0 0 39 34" fill="none" xmlns="http://www.w3.org/2000/svg">
<g id="crown-solid 1" clip-path="url(#clip0_629_1235)">
<g id="Vector" filter="url(#filter0_i_629_1235)">
<path d="M20.5195 7.03906C21.2766 6.57422 21.7812 5.73086 21.7812 4.78125C21.7812 3.31367 20.5926 2.125 19.125 2.125C17.6574 2.125 16.4688 3.31367 16.4688 4.78125C16.4688 5.7375 16.9734 6.57422 17.7305 7.03906L13.9254 14.6492C13.3211 15.8578 11.7539 16.2031 10.698 15.3598L4.78125 10.625C5.11328 10.1801 5.3125 9.62891 5.3125 9.03125C5.3125 7.56367 4.12383 6.375 2.65625 6.375C1.18867 6.375 0 7.56367 0 9.03125C0 10.4988 1.18867 11.6875 2.65625 11.6875C2.66953 11.6875 2.68945 11.6875 2.70273 11.6875L5.7375 28.382C6.10273 30.4008 7.8625 31.875 9.92109 31.875H28.3289C30.3809 31.875 32.1406 30.4074 32.5125 28.382L35.5473 11.6875C35.5605 11.6875 35.5805 11.6875 35.5938 11.6875C37.0613 11.6875 38.25 10.4988 38.25 9.03125C38.25 7.56367 37.0613 6.375 35.5938 6.375C34.1262 6.375 32.9375 7.56367 32.9375 9.03125C32.9375 9.62891 33.1367 10.1801 33.4688 10.625L27.552 15.3598C26.4961 16.2031 24.9289 15.8578 24.3246 14.6492L20.5195 7.03906Z" fill="#FF6B00"/>
</g>
</g>
<defs>
<filter id="filter0_i_629_1235" x="0" y="2.125" width="40.25" height="31.75" filterUnits="userSpaceOnUse" color-interpolation-filters="sRGB">
<feFlood flood-opacity="0" result="BackgroundImageFix"/>
<feBlend mode="normal" in="SourceGraphic" in2="BackgroundImageFix" result="shape"/>
<feColorMatrix in="SourceAlpha" type="matrix" values="0 0 0 0 0 0 0 0 0 0 0 0 0 0 0 0 0 0 127 0" result="hardAlpha"/>
<feOffset dx="2" dy="2"/>
<feGaussianBlur stdDeviation="1"/>
<feComposite in2="hardAlpha" operator="arithmetic" k2="-1" k3="1"/>
<feColorMatrix type="matrix" values="0 0 0 0 0 0 0 0 0 0 0 0 0 0 0 0 0 0 0.25 0"/>
<feBlend mode="normal" in2="shape" result="effect1_innerShadow_629_1235"/>
</filter>
<clipPath id="clip0_629_1235">
<rect width="38.25" height="34" fill="white"/>
</clipPath>
</defs>
</svg>
