<svg width="86" height="86" viewBox="0 0 86 86" fill="none" xmlns="http://www.w3.org/2000/svg">
<g id="Cup">
<path id="Vector" d="M43 83.3125C65.264 83.3125 83.3125 65.264 83.3125 43C83.3125 20.736 65.264 2.6875 43 2.6875C20.736 2.6875 2.6875 20.736 2.6875 43C2.6875 65.264 20.736 83.3125 43 83.3125Z" fill="#382673"/>
<path id="Vector_2" d="M43 76.5938C61.5533 76.5938 76.5938 61.5533 76.5938 43C76.5938 24.4467 61.5533 9.40625 43 9.40625C24.4467 9.40625 9.40625 24.4467 9.40625 43C9.40625 61.5533 24.4467 76.5938 43 76.5938Z" fill="#473080"/>
<path id="Vector_3" d="M56.4375 73.9062H29.5625V61.8125C29.5625 61.0734 30.1672 60.4688 30.9062 60.4688H55.0938C55.8328 60.4688 56.4375 61.0734 56.4375 61.8125V73.9062Z" fill="#0CAFE8"/>
<path id="Vector_4" d="M58.4531 75.9219H27.5469L28.2188 73.9062H57.7812L58.4531 75.9219Z" fill="#0B90D3"/>
<path id="Vector_5" d="M48.375 71.2188H37.625C36.1469 71.2188 34.9375 70.0094 34.9375 68.5312V66.5156C34.9375 65.0375 36.1469 63.8281 37.625 63.8281H48.375C49.8531 63.8281 51.0625 65.0375 51.0625 66.5156V68.5312C51.0625 70.0094 49.8531 71.2188 48.375 71.2188Z" fill="white"/>
<path id="Vector_6" d="M39.5063 46.0234H46.561V57.1094H39.5063V46.0234Z" fill="#F9A74E"/>
<path id="Vector_7" opacity="0.2" d="M44.478 46.0234H46.4937V57.1094H44.478V46.0234Z" fill="#382673"/>
<path id="Vector_8" d="M49.0469 56.4375H36.9531C34.7359 56.4375 32.9219 58.2516 32.9219 60.4688H53.0781C53.0781 58.2516 51.2641 56.4375 49.0469 56.4375Z" fill="#FFDE39"/>
<path id="Vector_9" d="M49.0469 56.4375H45.6875C47.9047 56.4375 49.7188 58.2516 49.7188 60.4688H53.0781C53.0781 58.2516 51.2641 56.4375 49.0469 56.4375Z" fill="#FEC632"/>
<path id="Vector_10" d="M46.4266 51.7344H39.5734C37.7594 51.7344 36.2812 50.2562 36.2812 48.4422V47.7031H49.7188V48.4422C49.7188 50.2562 48.2406 51.7344 46.4266 51.7344Z" fill="#FFDE39"/>
<path id="Vector_11" d="M47.0312 47.7031V48.4422C47.0312 50.2562 46.225 51.7344 44.4109 51.7344H46.4265C48.2406 51.7344 49.7187 50.2562 49.7187 48.4422V47.7031H47.0312Z" fill="#FEC632"/>
<path id="Vector_12" d="M54.4219 60.4688H31.5781C31.5781 59.7297 32.1828 59.125 32.9219 59.125H53.0781C53.8172 59.125 54.4219 59.7297 54.4219 60.4688Z" fill="#F9A74E"/>
<path id="Vector_13" opacity="0.2" d="M53.0781 59.125H49.7188C50.4578 59.125 51.0625 59.7297 51.0625 60.4688H54.4219C54.4219 59.7297 53.8172 59.125 53.0781 59.125Z" fill="#382673"/>
<path id="Vector_14" d="M51.0625 46.3594H34.9375V48.375C34.9375 49.1141 35.5422 49.7188 36.2812 49.7188H49.7188C50.4578 49.7188 51.0625 49.1141 51.0625 48.375V46.3594Z" fill="#F9A74E"/>
<path id="Vector_15" d="M51.0625 46.3594H34.9375V48.375C34.9375 49.1141 35.5422 49.7188 36.2812 49.7188H49.7188C50.4578 49.7188 51.0625 49.1141 51.0625 48.375V46.3594Z" fill="#F9A74E"/>
<path id="Vector_16" opacity="0.2" d="M47.7031 46.3594L46.3594 48.375C47.0312 48.375 47.0984 49.7188 46.3594 49.7188H49.7188C50.4578 49.7188 51.0625 49.1141 51.0625 48.375V46.3594H47.7031Z" fill="#382673"/>
<path id="Vector_17" d="M52.4062 24.8594H65.1719V25.5312C65.1719 32.5859 59.4609 38.2969 52.4062 38.2969" stroke="#F9A74E" stroke-width="4" stroke-miterlimit="10" stroke-linecap="round" stroke-linejoin="round"/>
<path id="Vector_18" d="M33.5938 24.8594H20.8281V25.5312C20.8281 32.5859 26.5391 38.2969 33.5938 38.2969" stroke="#FEC632" stroke-width="4" stroke-miterlimit="10" stroke-linecap="round" stroke-linejoin="round"/>
<path id="Vector_19" d="M48.7109 48.375H37.2891C32.9891 48.375 29.5625 44.9484 29.5625 40.6484V19.4844H56.4375V40.6484C56.4375 44.9484 53.0109 48.375 48.7109 48.375Z" fill="#FFDE39"/>
<path id="Vector_20" opacity="0.3" d="M33.5938 21.5V34.9375" stroke="white" stroke-width="2" stroke-miterlimit="10" stroke-linecap="round" stroke-linejoin="round"/>
<path id="Vector_21" d="M53.0781 19.4844V40.6484C53.0781 44.9484 49.6516 48.375 45.3516 48.375H48.7109C53.0109 48.375 56.4375 44.9484 56.4375 40.6484V19.4844H53.0781Z" fill="#FEC632"/>
<path id="Vector_22" d="M58.4531 19.4844H27.5469L29.5625 21.5H56.4375L58.4531 19.4844Z" fill="#F9A74E"/>
<path id="Vector_23" opacity="0.2" d="M54.4219 19.4844L53.0781 21.5H56.4375L58.4531 19.4844H54.4219Z" fill="#382673"/>
<path id="Vector_24" d="M59.125 16.7969H26.875C26.1359 16.7969 25.5312 17.4016 25.5312 18.1406C25.5312 18.8797 26.1359 19.4844 26.875 19.4844H59.125C59.8641 19.4844 60.4688 18.8797 60.4688 18.1406C60.4688 17.4016 59.8641 16.7969 59.125 16.7969Z" fill="#FFDE39"/>
<path id="Vector_25" d="M59.125 16.7969H55.0938C55.8328 16.7969 56.4375 17.4016 56.4375 18.1406C56.4375 18.8797 55.8328 19.4844 55.0938 19.4844H59.125C59.8641 19.4844 60.4688 18.8797 60.4688 18.1406C60.4688 17.4016 59.8641 16.7969 59.125 16.7969Z" fill="#FEC632"/>
<path id="Vector_26" opacity="0.3" d="M33.5938 37.8936V39.4389" stroke="white" stroke-width="2" stroke-miterlimit="10" stroke-linecap="round" stroke-linejoin="round"/>
<path id="Vector_27" d="M32.8547 14.3783L33.2578 13.3705C33.3922 13.1018 33.7953 13.1018 33.8625 13.3705L34.2656 14.3783C34.6016 15.1846 35.2062 15.7893 36.0125 16.1252L37.0203 16.5283C37.2891 16.6627 37.2891 17.0658 37.0203 17.133L36.0125 17.5361C35.2062 17.8721 34.6016 18.4768 34.2656 19.283L33.8625 20.2908C33.7281 20.5596 33.325 20.5596 33.2578 20.2908L32.8547 19.283C32.5188 18.4768 31.9141 17.8721 31.1078 17.5361L30.1 17.133C29.8313 16.9986 29.8313 16.5955 30.1 16.5283L31.1078 16.1252C31.9141 15.7893 32.5859 15.1174 32.8547 14.3783Z" fill="white"/>
<path id="Vector_28" d="M43 36.6168L45.889 38.1621C46.2922 38.3637 46.8297 38.0277 46.7625 37.5574L46.1578 34.2652L48.5093 31.9809C48.8453 31.6449 48.6437 31.0402 48.1734 30.973L44.9484 30.5027L43.4703 27.5465C43.2687 27.1434 42.664 27.1434 42.4625 27.5465L40.9843 30.5027L37.7593 30.973C37.289 31.0402 37.0875 31.6449 37.4234 31.9809L39.775 34.2652L39.2375 37.4902C39.1703 37.9605 39.6406 38.2965 40.1109 38.0949L43 36.6168Z" fill="#FEC632"/>
</g>
</svg>
