<svg width="39" height="38" viewBox="0 0 39 38" fill="none" xmlns="http://www.w3.org/2000/svg">
<g id="Frame 51">
<path id="Exclude" fill-rule="evenodd" clip-rule="evenodd" d="M10.07 0C9.44044 0 8.93 0.510439 8.93 1.14H3.04C1.36108 1.14 0 2.50108 0 4.18V8.27585C0 9.45575 0.274702 10.6194 0.802397 11.6747L0.897861 11.8657C1.55201 13.1741 2.56982 14.2659 3.82922 15.01L4.29133 15.283C5.46231 15.975 6.79751 16.34 8.15766 16.34H8.93C8.93 21.3769 13.0131 25.46 18.05 25.46V29.26H13.0429C12.3465 29.26 11.7059 29.641 11.3735 30.253L8.41047 35.7066C8.25322 35.9638 8.17 36.2596 8.17 36.5612V36.7026C8.17 37.0467 8.30665 37.3767 8.55 37.62C8.79334 37.8633 9.12334 38 9.46744 38H29.2926C29.6367 38 29.9667 37.8633 30.21 37.62C30.4533 37.3767 30.59 37.0467 30.59 36.7026V36.5612C30.59 36.2596 30.5068 35.9638 30.3495 35.7066L26.9656 30.1693C26.6205 29.6045 26.0063 29.26 25.3444 29.26H20.71V25.46C25.7469 25.46 29.83 21.3769 29.83 16.34H30.5188C32.0504 16.34 33.5463 15.8772 34.8104 15.0123L34.9852 14.8927C35.968 14.2203 36.779 13.3263 37.3528 12.283L37.6293 11.7805C38.2464 10.6584 38.57 9.39851 38.57 8.11786V4.18C38.57 2.50108 37.2089 1.14 35.53 1.14H29.83C29.83 0.510439 29.3196 0 28.69 0H10.07ZM30.4363 13.87H29.83V3.8H35.15C35.7796 3.8 36.29 4.31044 36.29 4.94V8.33579C36.29 9.34433 36.0024 10.3319 35.461 11.1827C35.1295 11.7036 34.7097 12.1625 34.2204 12.539L34.1178 12.6178C33.0623 13.4298 31.7679 13.87 30.4363 13.87ZM14.1608 31.92H24.4092C24.8232 31.92 25.2047 32.1444 25.4057 32.5063L26.8232 35.0577C26.8935 35.1843 26.802 35.34 26.6571 35.34H11.9129C11.768 35.34 11.6765 35.1843 11.7468 35.0577L13.1643 32.5063C13.3653 32.1444 13.7468 31.92 14.1608 31.92ZM8.93 3.8V13.87H8.15451C6.81412 13.87 5.50007 13.3867 4.47029 12.5286C4.03054 12.1621 3.64358 11.7241 3.33623 11.2412C2.77049 10.3522 2.47 9.3203 2.47 8.26658V4.94C2.47 4.31044 2.98044 3.8 3.61 3.8H8.93ZM19.5503 6.77589C19.4346 6.43013 18.9454 6.43013 18.8297 6.77589L17.9259 9.47477C17.8744 9.62849 17.731 9.73258 17.5689 9.73407L14.7229 9.75967C14.3583 9.76292 14.2071 10.2281 14.5002 10.4451L16.7876 12.1387C16.9179 12.2351 16.9726 12.4036 16.9239 12.5582L16.0688 15.2729C15.9593 15.6206 16.3549 15.9081 16.6519 15.6964L18.9694 14.0443C19.1014 13.9502 19.2786 13.9502 19.4106 14.0443L21.7281 15.6964C22.0251 15.9081 22.4207 15.6206 22.3112 15.2729L21.4561 12.5582C21.4074 12.4036 21.4621 12.2351 21.5924 12.1387L23.8798 10.4451C24.1729 10.2281 24.0217 9.76292 23.6571 9.75967L20.8111 9.73407C20.649 9.73258 20.5056 9.62849 20.4541 9.47477L19.5503 6.77589Z" fill="#1E3050"/>
</g>
</svg>
