<svg width="20" height="19" viewBox="0 0 20 19" fill="none" xmlns="http://www.w3.org/2000/svg">
<g id="pen-to-square-regular 1" clip-path="url(#clip0_629_1153)">
<path id="Vector" d="M16.8652 2.1856L17.3143 2.63462C17.6631 2.98345 17.6631 3.54751 17.3143 3.89263L16.2344 4.97622L14.5236 3.26548L15.6035 2.1856C15.9523 1.83677 16.5164 1.83677 16.8615 2.1856H16.8652ZM8.28555 9.50728L13.2656 4.52349L14.9764 6.23423L9.99258 11.2143C9.88496 11.3219 9.75137 11.3999 9.60664 11.4407L7.43574 12.0604L8.05547 9.8895C8.09629 9.74478 8.17422 9.61118 8.28184 9.50356L8.28555 9.50728ZM14.3455 0.927588L7.02383 8.24556C6.70098 8.56841 6.46719 8.96548 6.34473 9.39966L5.2834 13.1106C5.19434 13.4223 5.27969 13.7563 5.50977 13.9864C5.73984 14.2165 6.07383 14.3018 6.38555 14.2127L10.0965 13.1514C10.5344 13.0252 10.9314 12.7915 11.2506 12.4723L18.5723 5.15435C19.615 4.11157 19.615 2.41938 18.5723 1.37661L18.1232 0.927588C17.0805 -0.115186 15.3883 -0.115186 14.3455 0.927588ZM3.76562 2.37485C1.96211 2.37485 0.5 3.83696 0.5 5.64048V15.7342C0.5 17.5377 1.96211 18.9999 3.76562 18.9999H13.8594C15.6629 18.9999 17.125 17.5377 17.125 15.7342V11.578C17.125 11.0844 16.7279 10.6874 16.2344 10.6874C15.7408 10.6874 15.3438 11.0844 15.3438 11.578V15.7342C15.3438 16.5543 14.6795 17.2186 13.8594 17.2186H3.76562C2.94551 17.2186 2.28125 16.5543 2.28125 15.7342V5.64048C2.28125 4.82036 2.94551 4.1561 3.76562 4.1561H7.92188C8.41543 4.1561 8.8125 3.75903 8.8125 3.26548C8.8125 2.77192 8.41543 2.37485 7.92188 2.37485H3.76562Z" fill="#1E3050"/>
</g>
<defs>
<clipPath id="clip0_629_1153">
<rect width="19" height="19" fill="white" transform="translate(0.5)"/>
</clipPath>
</defs>
</svg>
