<svg width="27" height="21" viewBox="0 0 27 21" fill="none" xmlns="http://www.w3.org/2000/svg">
<path id="Vector" d="M6.73146 20.5125C6.44552 20.8219 6.04708 21 5.62521 21C5.20333 21 4.80489 20.8219 4.51896 20.5125L0.393956 16.0125C-0.163857 15.4031 -0.126357 14.4516 0.487706 13.8937C1.10177 13.3359 2.04864 13.3734 2.60646 13.9875L4.12521 15.6422V1.5C4.12521 0.670312 4.79552 0 5.62521 0C6.45489 0 7.12521 0.670312 7.12521 1.5V15.6422L8.64396 13.9828C9.20177 13.3734 10.1533 13.3312 10.7627 13.8891C11.3721 14.4469 11.4143 15.3984 10.8565 16.0078L6.73146 20.5078V20.5125ZM14.6252 21C13.7955 21 13.1252 20.3297 13.1252 19.5C13.1252 18.6703 13.7955 18 14.6252 18H16.1252C16.9549 18 17.6252 18.6703 17.6252 19.5C17.6252 20.3297 16.9549 21 16.1252 21H14.6252ZM14.6252 15C13.7955 15 13.1252 14.3297 13.1252 13.5C13.1252 12.6703 13.7955 12 14.6252 12H19.1252C19.9549 12 20.6252 12.6703 20.6252 13.5C20.6252 14.3297 19.9549 15 19.1252 15H14.6252ZM14.6252 9C13.7955 9 13.1252 8.32969 13.1252 7.5C13.1252 6.67031 13.7955 6 14.6252 6H22.1252C22.9549 6 23.6252 6.67031 23.6252 7.5C23.6252 8.32969 22.9549 9 22.1252 9H14.6252ZM14.6252 3C13.7955 3 13.1252 2.32969 13.1252 1.5C13.1252 0.670312 13.7955 0 14.6252 0H25.1252C25.9549 0 26.6252 0.670312 26.6252 1.5C26.6252 2.32969 25.9549 3 25.1252 3H14.6252Z" fill="#1E3050"/>
</svg>
