<svg width="23" height="21" viewBox="0 0 23 21" fill="none" xmlns="http://www.w3.org/2000/svg">
<path id="Vector" d="M6.73146 20.5125C6.44552 20.8219 6.04708 21 5.62521 21C5.20333 21 4.80489 20.8219 4.51896 20.5125L0.393956 16.0125C-0.163857 15.4031 -0.126357 14.4516 0.487706 13.8937C1.10177 13.3359 2.04864 13.3734 2.60646 13.9875L4.12521 15.6422V1.5C4.12521 0.670312 4.79552 0 5.62521 0C6.45489 0 7.12521 0.670312 7.12521 1.5V15.6422L8.64396 13.9828C9.20177 13.3734 10.1533 13.3312 10.7627 13.8891C11.3721 14.4469 11.4143 15.3984 10.8565 16.0078L6.73146 20.5078V20.5125ZM13.1252 1.5C13.1252 0.670312 13.7955 0 14.6252 0H20.6252C21.2299 0 21.7783 0.365625 22.0127 0.928125C22.2471 1.49062 22.1158 2.13281 21.6893 2.56406L18.2486 6H20.6252C21.4549 6 22.1252 6.67031 22.1252 7.5C22.1252 8.32969 21.4549 9 20.6252 9H14.6252C14.0205 9 13.4721 8.63437 13.2377 8.07187C13.0033 7.50937 13.1346 6.86719 13.5611 6.43594L17.0018 3H14.6252C13.7955 3 13.1252 2.32969 13.1252 1.5ZM17.6252 10.5C18.1924 10.5 18.7127 10.8188 18.9658 11.3297L21.9658 17.3297L22.7158 18.8297C23.0861 19.5703 22.7861 20.4703 22.0455 20.8406C21.3049 21.2109 20.4049 20.9109 20.0346 20.1703L19.6971 19.5H15.5533L15.2158 20.1703C14.8455 20.9109 13.9455 21.2109 13.2049 20.8406C12.4643 20.4703 12.1643 19.5703 12.5346 18.8297L13.2846 17.3297L16.2846 11.3297C16.5377 10.8234 17.058 10.5 17.6252 10.5ZM16.6783 17.25H18.5721L17.6252 15.3563L16.6783 17.25Z" fill="#1E3050"/>
</svg>
