<svg width="18" height="15" viewBox="0 0 18 15" fill="none" xmlns="http://www.w3.org/2000/svg">
<path id="Vector" d="M4.61264 14.175C4.42201 14.3813 4.15639 14.5 3.87514 14.5C3.59389 14.5 3.32826 14.3813 3.13764 14.175L0.387637 11.175C0.0157622 10.7688 0.0407622 10.1344 0.450137 9.7625C0.859512 9.39062 1.49076 9.41562 1.86264 9.825L2.87514 10.9281V1.5C2.87514 0.946875 3.32201 0.5 3.87514 0.5C4.42826 0.5 4.87514 0.946875 4.87514 1.5V10.9281L5.88764 9.82187C6.25951 9.41562 6.89389 9.3875 7.30014 9.75937C7.70639 10.1312 7.73451 10.7656 7.36264 11.1719L4.61264 14.1719V14.175ZM9.87514 14.5C9.32201 14.5 8.87514 14.0531 8.87514 13.5C8.87514 12.9469 9.32201 12.5 9.87514 12.5H10.8751C11.4283 12.5 11.8751 12.9469 11.8751 13.5C11.8751 14.0531 11.4283 14.5 10.8751 14.5H9.87514ZM9.87514 10.5C9.32201 10.5 8.87514 10.0531 8.87514 9.5C8.87514 8.94687 9.32201 8.5 9.87514 8.5H12.8751C13.4283 8.5 13.8751 8.94687 13.8751 9.5C13.8751 10.0531 13.4283 10.5 12.8751 10.5H9.87514ZM9.87514 6.5C9.32201 6.5 8.87514 6.05312 8.87514 5.5C8.87514 4.94688 9.32201 4.5 9.87514 4.5H14.8751C15.4283 4.5 15.8751 4.94688 15.8751 5.5C15.8751 6.05312 15.4283 6.5 14.8751 6.5H9.87514ZM9.87514 2.5C9.32201 2.5 8.87514 2.05313 8.87514 1.5C8.87514 0.946875 9.32201 0.5 9.87514 0.5H16.8751C17.4283 0.5 17.8751 0.946875 17.8751 1.5C17.8751 2.05313 17.4283 2.5 16.8751 2.5H9.87514Z" fill="#FF8A35"/>
</svg>
