<svg width="24" height="22" viewBox="0 0 24 22" fill="none" xmlns="http://www.w3.org/2000/svg">
<path id="A-Z" d="M7.2942 21.0125C7.00826 21.3219 6.60982 21.5 6.18795 21.5C5.76607 21.5 5.36764 21.3219 5.0817 21.0125L0.9567 16.5125C0.398888 15.9031 0.436387 14.9516 1.05045 14.3937C1.66451 13.8359 2.61139 13.8734 3.1692 14.4875L4.68795 16.1422V2C4.68795 1.17031 5.35826 0.5 6.18795 0.5C7.01764 0.5 7.68795 1.17031 7.68795 2V16.1422L9.2067 14.4828C9.76451 13.8734 10.7161 13.8312 11.3255 14.3891C11.9348 14.9469 11.977 15.8984 11.4192 16.5078L7.2942 21.0078V21.0125ZM13.688 14C13.688 13.1703 14.3583 12.5 15.188 12.5H21.188C21.7926 12.5 22.3411 12.8656 22.5755 13.4281C22.8098 13.9906 22.6786 14.6328 22.252 15.0641L18.8114 18.5H21.188C22.0176 18.5 22.688 19.1703 22.688 20C22.688 20.8297 22.0176 21.5 21.188 21.5H15.188C14.5833 21.5 14.0348 21.1344 13.8004 20.5719C13.5661 20.0094 13.6973 19.3672 14.1239 18.9359L17.5645 15.5H15.188C14.3583 15.5 13.688 14.8297 13.688 14ZM18.188 0.5C18.7551 0.5 19.2754 0.81875 19.5286 1.32969L22.5286 7.32969L23.2786 8.82969C23.6489 9.57031 23.3489 10.4703 22.6083 10.8406C21.8676 11.2109 20.9676 10.9109 20.5973 10.1703L20.2598 9.5H16.1161L15.7786 10.1703C15.4083 10.9109 14.5083 11.2109 13.7676 10.8406C13.027 10.4703 12.727 9.57031 13.0973 8.82969L13.8473 7.32969L16.8473 1.32969C17.1005 0.81875 17.6208 0.5 18.188 0.5ZM17.2411 7.25H19.1348L18.188 5.35625L17.2411 7.25Z" fill="#1E3050"/>
</svg>
