<svg width="24" height="21" viewBox="0 0 24 21" fill="none" xmlns="http://www.w3.org/2000/svg">
<path id="A-Z" d="M7.6067 20.5125C7.32076 20.8219 6.92232 21 6.50045 21C6.07857 21 5.68014 20.8219 5.3942 20.5125L1.2692 16.0125C0.711388 15.4031 0.748887 14.4516 1.36295 13.8937C1.97701 13.3359 2.92389 13.3734 3.4817 13.9875L5.00045 15.6422V1.5C5.00045 0.670312 5.67076 0 6.50045 0C7.33014 0 8.00045 0.670312 8.00045 1.5V15.6422L9.5192 13.9828C10.077 13.3734 11.0286 13.3312 11.6379 13.8891C12.2473 14.4469 12.2895 15.3984 11.7317 16.0078L7.6067 20.5078V20.5125ZM14.0005 13.5C14.0005 12.6703 14.6708 12 15.5005 12H21.5005C22.1051 12 22.6536 12.3656 22.888 12.9281C23.1223 13.4906 22.9911 14.1328 22.5645 14.5641L19.1239 18H21.5005C22.3301 18 23.0005 18.6703 23.0005 19.5C23.0005 20.3297 22.3301 21 21.5005 21H15.5005C14.8958 21 14.3473 20.6344 14.1129 20.0719C13.8786 19.5094 14.0098 18.8672 14.4364 18.4359L17.877 15H15.5005C14.6708 15 14.0005 14.3297 14.0005 13.5ZM18.5005 0C19.0676 0 19.588 0.31875 19.8411 0.829688L22.8411 6.82969L23.5911 8.32969C23.9614 9.07031 23.6614 9.97031 22.9208 10.3406C22.1801 10.7109 21.2801 10.4109 20.9098 9.67031L20.5723 9H16.4286L16.0911 9.67031C15.7208 10.4109 14.8208 10.7109 14.0801 10.3406C13.3395 9.97031 13.0395 9.07031 13.4098 8.32969L14.1598 6.82969L17.1598 0.829688C17.4129 0.31875 17.9333 0 18.5005 0ZM17.5536 6.75H19.4473L18.5005 4.85625L17.5536 6.75Z" fill="#FF8A35"/>
</svg>
