<svg width="86" height="86" viewBox="0 0 86 86" fill="none" xmlns="http://www.w3.org/2000/svg">
<g id="Finish">
<path id="Vector" d="M43 83.3125C65.264 83.3125 83.3125 65.264 83.3125 43C83.3125 20.736 65.264 2.6875 43 2.6875C20.736 2.6875 2.6875 20.736 2.6875 43C2.6875 65.264 20.736 83.3125 43 83.3125Z" fill="#382673"/>
<path id="Vector_2" d="M43 76.5938C61.5533 76.5938 76.5938 61.5533 76.5938 43C76.5938 24.4467 61.5533 9.40625 43 9.40625C24.4467 9.40625 9.40625 24.4467 9.40625 43C9.40625 61.5533 24.4467 76.5938 43 76.5938Z" fill="#473080"/>
<path id="Vector_3" d="M17.4688 23.5156H69.2031V38.2969H17.4688V23.5156Z" fill="white"/>
<path id="Vector_4" opacity="0.2" d="M17.4688 30.9062H24.8594V38.2969H17.4688V30.9062ZM24.8594 23.5156H32.25V30.9062H24.8594V23.5156ZM32.25 30.9062H39.6406V38.2969H32.25V30.9062ZM39.6406 23.5156H47.0312V30.9062H39.6406V23.5156ZM47.0312 30.9062H54.4219V38.2969H47.0312V30.9062ZM54.4219 23.5156H61.8125V30.9062H54.4219V23.5156ZM61.8125 30.9062H69.2031V38.2969H61.8125V30.9062Z" fill="#382673"/>
<path id="Vector_5" d="M69.875 20.8281C69.1359 20.8281 68.5312 21.4328 68.5312 22.1719V74.175C69.4719 73.4359 70.3453 72.6297 71.2188 71.7563V22.1719C71.2188 21.4328 70.6141 20.8281 69.875 20.8281ZM16.7969 20.8281C16.0578 20.8281 15.4531 21.4328 15.4531 22.1719V72.4281C16.3266 73.2344 17.2 73.9734 18.1406 74.7125V22.1719C18.1406 21.4328 17.5359 20.8281 16.7969 20.8281Z" fill="#FEC632"/>
<path id="Vector_6" d="M69.875 23.5156C71.3593 23.5156 72.5625 22.3124 72.5625 20.8281C72.5625 19.3439 71.3593 18.1406 69.875 18.1406C68.3907 18.1406 67.1875 19.3439 67.1875 20.8281C67.1875 22.3124 68.3907 23.5156 69.875 23.5156Z" fill="#FFDE39"/>
<path id="Vector_7" d="M16.7969 23.5156C18.2811 23.5156 19.4844 22.3124 19.4844 20.8281C19.4844 19.3439 18.2811 18.1406 16.7969 18.1406C15.3126 18.1406 14.1094 19.3439 14.1094 20.8281C14.1094 22.3124 15.3126 23.5156 16.7969 23.5156Z" fill="#FFDE39"/>
<path id="Vector_8" d="M30.2344 54.4219H36.9531V60.4688H30.2344V54.4219Z" fill="#D44A90"/>
<path id="Vector_9" d="M34.9375 64.5L30.2344 60.6031V54.4219L34.9375 58.3188V64.5Z" fill="#A72973"/>
<path id="Vector_10" d="M18.1406 58.4531H34.9375V64.5H18.1406V58.4531Z" fill="#F15A9E"/>
<path id="Vector_11" d="M56.4375 60.4688H49.7188V54.4219H56.4375V60.4688Z" fill="#D44A90"/>
<path id="Vector_12" d="M51.7344 64.5L56.4375 60.6031V54.4219L51.7344 58.3188V64.5Z" fill="#A72973"/>
<path id="Vector_13" d="M68.5312 64.5H51.7344V58.4531H68.5312V64.5Z" fill="#F15A9E"/>
<path id="Vector_14" d="M42.9999 51.1299V47.7705M39.439 51.8018V49.8533M46.5608 51.8018V49.8533" stroke="white" stroke-width="2" stroke-miterlimit="10" stroke-linecap="round"/>
</g>
</svg>
