<svg width="58" height="47" viewBox="0 0 58 47" fill="none" xmlns="http://www.w3.org/2000/svg">
<g clip-path="url(#clip0_50_425)">
<path d="M12.9375 0.5C14.8437 0.5 16.6719 1.25725 18.0198 2.60517C19.3677 3.95309 20.125 5.78126 20.125 7.6875C20.125 9.59374 19.3677 11.4219 18.0198 12.7698C16.6719 14.1177 14.8437 14.875 12.9375 14.875C11.0313 14.875 9.20309 14.1177 7.85517 12.7698C6.50725 11.4219 5.75 9.59374 5.75 7.6875C5.75 5.78126 6.50725 3.95309 7.85517 2.60517C9.20309 1.25725 11.0313 0.5 12.9375 0.5ZM46 0.5C47.9062 0.5 49.7344 1.25725 51.0823 2.60517C52.4302 3.95309 53.1875 5.78126 53.1875 7.6875C53.1875 9.59374 52.4302 11.4219 51.0823 12.7698C49.7344 14.1177 47.9062 14.875 46 14.875C44.0938 14.875 42.2656 14.1177 40.9177 12.7698C39.5698 11.4219 38.8125 9.59374 38.8125 7.6875C38.8125 5.78126 39.5698 3.95309 40.9177 2.60517C42.2656 1.25725 44.0938 0.5 46 0.5ZM0 27.3363C0 22.0445 4.29453 17.75 9.58633 17.75H13.4227C14.8512 17.75 16.2078 18.0645 17.4297 18.6215C17.3129 19.2684 17.259 19.9422 17.259 20.625C17.259 24.057 18.7684 27.1387 21.1492 29.25C21.1313 29.25 21.1133 29.25 21.0863 29.25H1.91367C0.8625 29.25 0 28.3875 0 27.3363ZM36.4137 29.25C36.3957 29.25 36.3777 29.25 36.3508 29.25C38.7406 27.1387 40.241 24.057 40.241 20.625C40.241 19.9422 40.1781 19.2773 40.0703 18.6215C41.2922 18.0555 42.6488 17.75 44.0773 17.75H47.9137C53.2055 17.75 57.5 22.0445 57.5 27.3363C57.5 28.3965 56.6375 29.25 55.5863 29.25H36.4137ZM20.125 20.625C20.125 18.3375 21.0337 16.1437 22.6512 14.5262C24.2687 12.9087 26.4625 12 28.75 12C31.0375 12 33.2313 12.9087 34.8488 14.5262C36.4663 16.1437 37.375 18.3375 37.375 20.625C37.375 22.9125 36.4663 25.1063 34.8488 26.7238C33.2313 28.3413 31.0375 29.25 28.75 29.25C26.4625 29.25 24.2687 28.3413 22.6512 26.7238C21.0337 25.1063 20.125 22.9125 20.125 20.625ZM11.5 44.1012C11.5 37.4887 16.8637 32.125 23.4762 32.125H34.0238C40.6363 32.125 46 37.4887 46 44.1012C46 45.4219 44.9309 46.5 43.6012 46.5H13.8988C12.5781 46.5 11.5 45.4309 11.5 44.1012Z" fill="#FF8A35"/>
</g>
<defs>
<clipPath id="clip0_50_425">
<rect width="57.5" height="46" fill="white" transform="translate(0 0.5)"/>
</clipPath>
</defs>
</svg>
