<svg width="66" height="60" viewBox="0 0 66 60" fill="none" xmlns="http://www.w3.org/2000/svg">
<path d="M-0.00878906 3.27608L7.59035 3.2761L14.9251 0L22.2599 3.2761L29.4626 3.27611L27.5648 15.0344C26.8291 19.5923 24.4505 23.7232 20.8778 26.6475L14.9251 31.5198L8.8021 26.5081C5.33235 23.668 2.98541 19.6868 2.18061 15.2758L-0.00878906 3.27608Z" fill="#FF8A35"/>
<path d="M5.05544 7.17702L10.1197 7.17703L15.0078 4.99376L19.8958 7.17703L24.6959 7.17704L23.812 12.6533C23.0763 17.2111 20.6977 21.342 17.125 24.2663L15.0078 25.9993L12.7201 24.1269C9.25039 21.2869 6.90345 17.3057 6.09864 12.8946L5.05544 7.17702Z" fill="#FF6B00"/>
<path d="M36.0374 31.7563L43.6366 31.7563L50.9713 28.4802L58.3061 31.7563L65.5088 31.7563L63.611 43.5146C62.8753 48.0725 60.4967 52.2034 56.924 55.1277L50.9713 60L44.8483 54.9882C41.3786 52.1482 39.0316 48.167 38.2268 43.756L36.0374 31.7563Z" fill="#FF8A35"/>
<path d="M41.1017 35.6572L46.1659 35.6572L51.054 33.4739L55.9421 35.6572L60.7421 35.6572L59.8582 41.1334C59.1226 45.6913 56.7439 49.8222 53.1712 52.7465L51.054 54.4795L48.7664 52.6071C45.2966 49.767 42.9497 45.7858 42.1449 41.3748L41.1017 35.6572Z" fill="#FF6B00"/>
<path d="M23.5484 30.5947L38.6145 11.0352L31.6762 25.6388L38.6145 24.185L20.1784 45.9912L29.3634 29.4714L23.5484 30.5947Z" fill="#FF8A35"/>
</svg>
