<svg width="40" height="40" viewBox="0 0 40 40" fill="none" xmlns="http://www.w3.org/2000/svg">
<g id="Group 20">
<circle id="Ellipse 13" cx="20" cy="20" r="19" fill="#E1F6FF" stroke="#1E3050" stroke-width="2"/>
<path id="Vector" d="M20.4167 19.9997C21.9953 19.9997 23.5093 19.3851 24.6256 18.2911C25.7419 17.1972 26.369 15.7134 26.369 14.1663C26.369 12.6192 25.7419 11.1355 24.6256 10.0416C23.5093 8.94759 21.9953 8.33301 20.4167 8.33301C18.838 8.33301 17.324 8.94759 16.2077 10.0416C15.0914 11.1355 14.4643 12.6192 14.4643 14.1663C14.4643 15.7134 15.0914 17.1972 16.2077 18.2911C17.324 19.3851 18.838 19.9997 20.4167 19.9997ZM18.2915 22.1872C13.7109 22.1872 10 25.8239 10 30.3128C10 31.0602 10.6185 31.6663 11.3811 31.6663H29.4522C30.2148 31.6663 30.8333 31.0602 30.8333 30.3128C30.8333 25.8239 27.1224 22.1872 22.5419 22.1872H18.2915Z" fill="#1E3050"/>
</g>
</svg>
