<svg width="23" height="24" viewBox="0 0 23 24" fill="none" xmlns="http://www.w3.org/2000/svg">
<g id="key-solid 1" clip-path="url(#clip0_643_1308)">
<path id="Vector" d="M15.0938 16.3125C19.4602 16.3125 23 12.7727 23 8.40625C23 4.03984 19.4602 0.5 15.0938 0.5C10.7273 0.5 7.1875 4.03984 7.1875 8.40625C7.1875 9.24629 7.31777 10.0594 7.56035 10.8186L0.314453 18.0645C0.112305 18.2666 0 18.5406 0 18.8281V22.4219C0 23.0193 0.480664 23.5 1.07812 23.5H4.67188C5.26934 23.5 5.75 23.0193 5.75 22.4219V20.625H7.54688C8.14434 20.625 8.625 20.1443 8.625 19.5469V17.75H10.4219C10.7094 17.75 10.9834 17.6377 11.1855 17.4355L12.6814 15.9396C13.4406 16.1822 14.2537 16.3125 15.0938 16.3125ZM16.8906 4.8125C17.3672 4.8125 17.8242 5.00181 18.1612 5.33879C18.4982 5.67577 18.6875 6.13281 18.6875 6.60938C18.6875 7.08594 18.4982 7.54298 18.1612 7.87996C17.8242 8.21694 17.3672 8.40625 16.8906 8.40625C16.4141 8.40625 15.957 8.21694 15.62 7.87996C15.2831 7.54298 15.0938 7.08594 15.0938 6.60938C15.0938 6.13281 15.2831 5.67577 15.62 5.33879C15.957 5.00181 16.4141 4.8125 16.8906 4.8125Z" fill="#1E3050"/>
</g>
<defs>
<clipPath id="clip0_643_1308">
<rect width="23" height="23" fill="white" transform="translate(0 0.5)"/>
</clipPath>
</defs>
</svg>
