<svg width="23" height="24" viewBox="0 0 23 24" fill="none" xmlns="http://www.w3.org/2000/svg">
<g id="arrow-right-from-bracket-solid 1">
<path id="Vector" d="M22.5777 13.0152C23.1393 12.4537 23.1393 11.5418 22.5777 10.9803L16.8277 5.23027C16.2662 4.66875 15.3543 4.66875 14.7928 5.23027C14.2312 5.7918 14.2312 6.70371 14.7928 7.26523L18.09 10.5625H8.625C7.82988 10.5625 7.1875 11.2049 7.1875 12C7.1875 12.7951 7.82988 13.4375 8.625 13.4375H18.09L14.7928 16.7348C14.2312 17.2963 14.2312 18.2082 14.7928 18.7697C15.3543 19.3313 16.2662 19.3313 16.8277 18.7697L22.5777 13.0197V13.0152ZM7.1875 4.8125C7.98262 4.8125 8.625 4.17012 8.625 3.375C8.625 2.57988 7.98262 1.9375 7.1875 1.9375H4.3125C1.93164 1.9375 0 3.86914 0 6.25V17.75C0 20.1309 1.93164 22.0625 4.3125 22.0625H7.1875C7.98262 22.0625 8.625 21.4201 8.625 20.625C8.625 19.8299 7.98262 19.1875 7.1875 19.1875H4.3125C3.51738 19.1875 2.875 18.5451 2.875 17.75V6.25C2.875 5.45488 3.51738 4.8125 4.3125 4.8125H7.1875Z" fill="#1E3050"/>
</g>
</svg>
