<svg width="38" height="38" viewBox="0 0 38 38" fill="none" xmlns="http://www.w3.org/2000/svg">
<g clip-path="url(#clip0_44_277)">
<path d="M0.304297 2.83516C0.103906 2.53828 0 2.18203 0 1.82578C0 0.816406 0.816406 0 1.82578 0H9.93789C10.7691 0 11.5484 0.437891 11.9715 1.15039L17.0555 9.61875C13.4781 10.0715 10.2793 11.7414 7.89687 14.2129L0.304297 2.83516ZM37.6883 2.83516L30.1031 14.2129C27.7207 11.7414 24.5219 10.0715 20.9445 9.61875L26.0285 1.15039C26.459 0.437891 27.2309 0 28.0621 0H36.1742C37.1836 0 38 0.816406 38 1.82578C38 2.18203 37.8961 2.53828 37.6957 2.83516H37.6883ZM5.9375 24.9375C5.9375 21.4731 7.31372 18.1506 9.76342 15.7009C12.2131 13.2512 15.5356 11.875 19 11.875C22.4644 11.875 25.7869 13.2512 28.2366 15.7009C30.6863 18.1506 32.0625 21.4731 32.0625 24.9375C32.0625 28.4019 30.6863 31.7244 28.2366 34.1741C25.7869 36.6238 22.4644 38 19 38C15.5356 38 12.2131 36.6238 9.76342 34.1741C7.31372 31.7244 5.9375 28.4019 5.9375 24.9375ZM19.6234 17.8941C19.3711 17.3746 18.6363 17.3746 18.3766 17.8941L16.7141 21.2637C16.6102 21.4715 16.4172 21.6125 16.1945 21.6422L12.4688 22.184C11.8973 22.2656 11.6746 22.9633 12.0828 23.3715L14.777 25.9988C14.9402 26.1621 15.0145 26.3848 14.9773 26.6148L14.3391 30.3184C14.2426 30.8824 14.8363 31.3203 15.3484 31.0531L18.6734 29.3016C18.8738 29.1977 19.1187 29.1977 19.3191 29.3016L22.6441 31.0531C23.1562 31.3203 23.75 30.8898 23.6535 30.3184L23.0152 26.6148C22.9781 26.3922 23.0523 26.1621 23.2156 25.9988L25.9098 23.3715C26.3254 22.9707 26.0953 22.273 25.5238 22.184L21.8055 21.6422C21.5828 21.6125 21.3824 21.4641 21.2859 21.2637L19.6234 17.8941Z" fill="#1E3050"/>
</g>
<defs>
<clipPath id="clip0_44_277">
<rect width="38" height="38" fill="white"/>
</clipPath>
</defs>
</svg>
