<svg width="44" height="44" viewBox="0 0 44 44" fill="none" xmlns="http://www.w3.org/2000/svg">
<g clip-path="url(#clip0_44_294)">
<path d="M0.352344 3.28281C0.120312 2.93906 0 2.52656 0 2.11406C0 0.945312 0.945312 0 2.11406 0H11.507C12.4695 0 13.3719 0.507031 13.8617 1.33203L19.7484 11.1375C15.6062 11.6617 11.9023 13.5953 9.14375 16.457L0.352344 3.28281ZM43.6391 3.28281L34.8563 16.457C32.0977 13.5953 28.3938 11.6617 24.2516 11.1375L30.1383 1.33203C30.6367 0.507031 31.5305 0 32.493 0H41.8859C43.0547 0 44 0.945312 44 2.11406C44 2.52656 43.8797 2.93906 43.6477 3.28281H43.6391ZM6.875 28.875C6.875 24.8636 8.46852 21.0165 11.305 18.18C14.1415 15.3435 17.9886 13.75 22 13.75C26.0114 13.75 29.8585 15.3435 32.695 18.18C35.5315 21.0165 37.125 24.8636 37.125 28.875C37.125 32.8864 35.5315 36.7335 32.695 39.57C29.8585 42.4065 26.0114 44 22 44C17.9886 44 14.1415 42.4065 11.305 39.57C8.46852 36.7335 6.875 32.8864 6.875 28.875ZM22.7219 20.7195C22.4297 20.118 21.5789 20.118 21.2781 20.7195L19.3531 24.6211C19.2328 24.8617 19.0094 25.025 18.7516 25.0594L14.4375 25.6867C13.7758 25.7812 13.518 26.5891 13.9906 27.0617L17.1102 30.1039C17.2992 30.293 17.3852 30.5508 17.3422 30.8172L16.6031 35.1055C16.4914 35.7586 17.1789 36.2656 17.7719 35.9562L21.6219 33.9281C21.8539 33.8078 22.1375 33.8078 22.3695 33.9281L26.2195 35.9562C26.8125 36.2656 27.5 35.7672 27.3883 35.1055L26.6492 30.8172C26.6063 30.5594 26.6922 30.293 26.8812 30.1039L30.0008 27.0617C30.482 26.5977 30.2156 25.7898 29.5539 25.6867L25.2484 25.0594C24.9906 25.025 24.7586 24.8531 24.6469 24.6211L22.7219 20.7195Z" fill="#FF8A35"/>
</g>
<defs>
<clipPath id="clip0_44_294">
<rect width="44" height="44" fill="white"/>
</clipPath>
</defs>
</svg>
