<svg width="28" height="30" viewBox="0 0 28 30" fill="none" xmlns="http://www.w3.org/2000/svg">
<path id="Vector" d="M13.9988 0C12.9616 0 12.1238 0.837891 12.1238 1.875V3C7.84641 3.86719 4.62376 7.65234 4.62376 12.1875V13.2891C4.62376 16.043 3.61008 18.7031 1.78196 20.7656L1.34837 21.252C0.856178 21.8027 0.738991 22.5938 1.03782 23.2676C1.33665 23.9414 2.01048 24.375 2.74876 24.375H25.2488C25.987 24.375 26.655 23.9414 26.9597 23.2676C27.2644 22.5938 27.1413 21.8027 26.6491 21.252L26.2156 20.7656C24.3874 18.7031 23.3738 16.0488 23.3738 13.2891V12.1875C23.3738 7.65234 20.1511 3.86719 15.8738 3V1.875C15.8738 0.837891 15.0359 0 13.9988 0ZM16.6531 28.9043C17.3562 28.2012 17.7488 27.2461 17.7488 26.25H13.9988H10.2488C10.2488 27.2461 10.6413 28.2012 11.3445 28.9043C12.0476 29.6074 13.0027 30 13.9988 30C14.9948 30 15.9499 29.6074 16.6531 28.9043Z" fill="#E1F6FF"/>
</svg>
