<svg width="95" height="108" viewBox="0 0 95 108" fill="none" xmlns="http://www.w3.org/2000/svg">
<path d="M47.5 54C54.6987 54 61.6026 51.1554 66.6929 46.0919C71.7832 41.0284 74.6429 34.1608 74.6429 27C74.6429 19.8392 71.7832 12.9716 66.6929 7.90812C61.6026 2.84464 54.6987 0 47.5 0C40.3013 0 33.3974 2.84464 28.3071 7.90812C23.2168 12.9716 20.3571 19.8392 20.3571 27C20.3571 34.1608 23.2168 41.0284 28.3071 46.0919C33.3974 51.1554 40.3013 54 47.5 54ZM37.8092 64.125C16.9219 64.125 0 80.9578 0 101.735C0 105.195 2.82031 108 6.29799 108H88.702C92.1797 108 95 105.195 95 101.735C95 80.9578 78.0781 64.125 57.1908 64.125H37.8092Z" fill="#FF8A35"/>
</svg>
