<svg width="15" height="15" viewBox="0 0 15 15" fill="none" xmlns="http://www.w3.org/2000/svg">
<g id="Vector">
<path d="M15 7.5C15 11.6421 11.6421 15 7.5 15C3.35786 15 0 11.6421 0 7.5C0 3.35786 3.35786 0 7.5 0C11.6421 0 15 3.35786 15 7.5Z" fill="white"/>
<path d="M2.79412 8.97059C1.98194 8.97059 1.32353 8.31218 1.32353 7.5C1.32353 6.68782 1.98194 6.02941 2.79412 6.02941H6.02941V2.79412C6.02941 1.98193 6.68782 1.32353 7.5 1.32353C8.31218 1.32353 8.97059 1.98193 8.97059 2.79412V6.02941H12.2059C13.0181 6.02941 13.6765 6.68782 13.6765 7.5C13.6765 8.31218 13.0181 8.97059 12.2059 8.97059H8.97059V12.2059C8.97059 13.0181 8.31218 13.6765 7.5 13.6765C6.68782 13.6765 6.02941 13.0181 6.02941 12.2059V8.97059H2.79412Z" fill="#FF6B00"/>
</g>
</svg>
