<svg width="60" height="59" viewBox="0 0 60 59" fill="none" xmlns="http://www.w3.org/2000/svg">
<g id="Frame 64">
<circle id="Ellipse 13" cx="30" cy="29.5" r="28.5" fill="#6BC2DE" fill-opacity="0.76" stroke="#1E3050" stroke-width="2"/>
<path id="Vector" d="M30 30.5C32.3491 30.5 34.6019 29.5781 36.2629 27.9372C37.924 26.2962 38.8571 24.0706 38.8571 21.75C38.8571 19.4294 37.924 17.2038 36.2629 15.5628C34.6019 13.9219 32.3491 13 30 13C27.6509 13 25.3981 13.9219 23.7371 15.5628C22.076 17.2038 21.1429 19.4294 21.1429 21.75C21.1429 24.0706 22.076 26.2962 23.7371 27.9372C25.3981 29.5781 27.6509 30.5 30 30.5ZM26.8377 33.7812C20.0219 33.7812 14.5 39.2363 14.5 45.9697C14.5 47.0908 15.4203 48 16.5551 48H43.4449C44.5797 48 45.5 47.0908 45.5 45.9697C45.5 39.2363 39.9781 33.7812 33.1623 33.7812H26.8377Z" fill="#1E3050"/>
</g>
</svg>
