<svg width="205" height="164" viewBox="0 0 205 164" fill="none" xmlns="http://www.w3.org/2000/svg">
<g id="ranking-star-solid 1" clip-path="url(#clip0_564_1133)">
<path id="Vector" d="M111.533 18.2148L112.084 19.3294H113.216L129.807 21.7085C131.189 21.9425 131.742 23.6475 130.758 24.6487L118.602 36.3568L117.838 37.0926L118.018 38.1378L120.899 54.8131C121.11 56.1648 119.698 57.2481 118.399 56.6115L103.492 48.806L102.559 48.3178L101.629 48.8098L86.6302 56.741C85.3623 57.3596 83.9389 56.3221 84.1353 54.9291L87.0138 38.2659L87.1931 37.2276L86.4382 36.4925L74.2776 24.6519C73.2518 23.6147 73.8481 21.9202 75.2131 21.7103C75.215 21.71 75.2169 21.7097 75.2188 21.7094L91.9573 19.3091L93.0003 19.1595L93.4668 18.2148L101.022 2.91285C101.022 2.91164 101.023 2.91043 101.023 2.90923C101.663 1.63626 103.427 1.74002 103.957 2.86896L103.965 2.88648L103.974 2.90383L111.533 18.2148ZM73.75 92.2505C73.75 87.6855 77.435 84.0005 82 84.0005H123C127.565 84.0005 131.25 87.6855 131.25 92.2505V153.75C131.25 158.315 127.565 162 123 162H82C77.435 162 73.75 158.315 73.75 153.75V92.2505ZM2 112.75C2 108.185 5.68504 104.5 10.25 104.5H51.25C55.815 104.5 59.5 108.185 59.5 112.75V153.75C59.5 158.315 55.815 162 51.25 162H10.25C5.68504 162 2 158.315 2 153.75V112.75ZM145.5 153.75V133.25C145.5 128.685 149.185 125 153.75 125H194.75C199.315 125 203 128.685 203 133.25V153.75C203 158.315 199.315 162 194.75 162H153.75C149.185 162 145.5 158.315 145.5 153.75Z" fill="#66AEC6" stroke="#E1F6FF" stroke-width="4"/>
</g>
<defs>
<clipPath id="clip0_564_1133">
<rect width="205" height="164" fill="white"/>
</clipPath>
</defs>
</svg>
