<svg width="26" height="26" viewBox="0 0 26 26" fill="none" xmlns="http://www.w3.org/2000/svg">
<g id="Vector">
<path d="M13.4238 18.2542L19.9093 12.8821L25.7497 19.7531C26.3557 20.4661 25.786 21.5464 24.8468 21.4653L21.4282 21.1701L21.1292 24.5447C21.047 25.4719 19.8703 25.8382 19.2642 25.1252L13.4238 18.2542Z" fill="#5EA0BD"/>
<path d="M6.09073 12.8823L12.5762 18.2544L6.73577 25.1254C6.12974 25.8384 4.95302 25.4721 4.87085 24.5449L4.57176 21.1703L1.15324 21.4655C0.214006 21.5466 -0.355709 20.4663 0.250321 19.7533L6.09073 12.8823Z" fill="#5EA0BD"/>
<path d="M11.2604 1.26169C12.1071 0.246102 13.6823 0.246102 14.529 1.26169L15.2398 2.11439C15.6877 2.65165 16.3771 2.93355 17.0787 2.8663L18.1921 2.75955C19.5183 2.63241 20.6321 3.73198 20.5033 5.04111L20.3952 6.14025C20.3271 6.8328 20.6126 7.51338 21.1569 7.95552L22.0207 8.65725C23.0494 9.49304 23.0494 11.0481 22.0207 11.8839L21.1569 12.5856C20.6126 13.0277 20.3271 13.7083 20.3952 14.4009L20.5033 15.5C20.6321 16.8091 19.5183 17.9087 18.1921 17.7816L17.0787 17.6748C16.3771 17.6076 15.6877 17.8895 15.2398 18.4267L14.529 19.2794C13.6823 20.295 12.1071 20.295 11.2604 19.2794L10.5496 18.4267C10.1017 17.8895 9.41223 17.6076 8.71069 17.6748L7.59726 17.7816C6.27112 17.9087 5.15725 16.8091 5.28604 15.5L5.39418 14.4009C5.46231 13.7083 5.17674 13.0277 4.63249 12.5856L3.76872 11.8839C2.73992 11.0481 2.73992 9.49304 3.76872 8.65725L4.63249 7.95552C5.17674 7.51338 5.46231 6.83279 5.39418 6.14025L5.28604 5.04111C5.15725 3.73198 6.27112 2.63241 7.59726 2.75955L8.71069 2.8663C9.41224 2.93355 10.1017 2.65165 10.5496 2.11439L11.2604 1.26169Z" fill="#1E3050"/>
<path d="M16.5986 10.2706C16.5986 12.2899 14.9403 13.927 12.8947 13.927C10.8491 13.927 9.19074 12.2899 9.19074 10.2706C9.19074 8.25118 10.8491 6.61415 12.8947 6.61415C14.9403 6.61415 16.5986 8.25118 16.5986 10.2706Z" fill="#5EA0BD"/>
</g>
</svg>
