<svg width="41" height="43" viewBox="0 0 41 43" fill="none" xmlns="http://www.w3.org/2000/svg">
<g id="Vector" filter="url(#filter0_i_2002_808)">
<path d="M20.5 0.5C20.8774 0.5 21.2547 0.582031 21.5993 0.737891L37.0457 7.29219C38.8504 8.05508 40.1957 9.83516 40.1875 11.9844C40.1465 20.1219 36.7996 35.0105 22.6657 41.7781C21.2957 42.4344 19.7043 42.4344 18.3344 41.7781C4.20043 35.0105 0.853553 20.1219 0.812537 11.9844C0.804334 9.83516 2.14965 8.05508 3.95433 7.29219L19.409 0.737891C19.7453 0.582031 20.1227 0.5 20.5 0.5ZM20.5 5.97969V36.9875C31.8204 31.5078 34.8637 19.3754 34.9375 12.0992L20.5 5.97969Z" fill="#FF6B00"/>
</g>
<defs>
<filter id="filter0_i_2002_808" x="0.8125" y="0.5" width="41.375" height="43.7703" filterUnits="userSpaceOnUse" color-interpolation-filters="sRGB">
<feFlood flood-opacity="0" result="BackgroundImageFix"/>
<feBlend mode="normal" in="SourceGraphic" in2="BackgroundImageFix" result="shape"/>
<feColorMatrix in="SourceAlpha" type="matrix" values="0 0 0 0 0 0 0 0 0 0 0 0 0 0 0 0 0 0 127 0" result="hardAlpha"/>
<feOffset dx="3" dy="2"/>
<feGaussianBlur stdDeviation="1"/>
<feComposite in2="hardAlpha" operator="arithmetic" k2="-1" k3="1"/>
<feColorMatrix type="matrix" values="0 0 0 0 0 0 0 0 0 0 0 0 0 0 0 0 0 0 0.25 0"/>
<feBlend mode="normal" in2="shape" result="effect1_innerShadow_2002_808"/>
</filter>
</defs>
</svg>
