<svg width="33" height="23" viewBox="0 0 33 23" fill="none" xmlns="http://www.w3.org/2000/svg">
<path fill-rule="evenodd" clip-rule="evenodd" d="M26.75 11.5C26.75 11.7849 26.5851 12.2783 26.0735 12.9214C25.5795 13.5424 24.8352 14.2086 23.8784 14.8223C21.965 16.0497 19.3064 17 16.375 17C13.4436 17 10.785 16.0497 8.87155 14.8223C7.91478 14.2086 7.17047 13.5424 6.67651 12.9214C6.16492 12.2783 6 11.7849 6 11.5C6 11.2151 6.16492 10.7217 6.67651 10.0785C7.17046 9.45756 7.91477 8.79133 8.87155 8.17765C10.785 6.95033 13.4436 6 16.375 6C19.3064 6 21.965 6.95033 23.8785 8.17765C24.8352 8.79133 25.5795 9.45756 26.0735 10.0785C26.5851 10.7217 26.75 11.2151 26.75 11.5ZM27.75 11.5C27.75 13.9375 22.6572 18 16.375 18C10.0928 18 5 13.9375 5 11.5C5 9.06244 10.0928 5 16.375 5C22.6572 5 27.75 9.06244 27.75 11.5ZM16.375 14.75C18.1699 14.75 19.625 13.2949 19.625 11.5C19.625 9.70507 18.1699 8.25 16.375 8.25C14.5801 8.25 13.125 9.70507 13.125 11.5C13.125 13.2949 14.5801 14.75 16.375 14.75Z" fill="#E1F6FF"/>
</svg>
