<svg width="23" height="14" viewBox="0 0 23 14" fill="none" xmlns="http://www.w3.org/2000/svg">
<path id="Union" fill-rule="evenodd" clip-rule="evenodd" d="M21.75 6.99997C21.75 7.28489 21.5851 7.77826 21.0735 8.42142C20.5795 9.0424 19.8352 9.70864 18.8784 10.3223C16.965 11.5497 14.3064 12.5 11.375 12.5C8.44359 12.5 5.78505 11.5497 3.87155 10.3223C2.91478 9.70864 2.17047 9.0424 1.67651 8.42142C1.16492 7.77826 1 7.28489 1 6.99997C1 6.71505 1.16492 6.22169 1.67651 5.57854C2.17046 4.95756 2.91477 4.29133 3.87155 3.67765C5.78504 2.45033 8.44359 1.5 11.375 1.5C14.3064 1.5 16.965 2.45033 18.8785 3.67765C19.8352 4.29133 20.5795 4.95756 21.0735 5.57854C21.5851 6.22169 21.75 6.71505 21.75 6.99997ZM22.75 6.99997C22.75 9.4375 17.6572 13.5 11.375 13.5C5.09276 13.5 0 9.4375 0 6.99997C0 4.56244 5.09276 0.5 11.375 0.5C17.6572 0.5 22.75 4.56244 22.75 6.99997ZM11.375 10.25C13.1699 10.25 14.625 8.79493 14.625 7C14.625 5.20507 13.1699 3.75 11.375 3.75C9.58007 3.75 8.125 5.20507 8.125 7C8.125 8.79493 9.58007 10.25 11.375 10.25Z" fill="#868686"/>
</svg>
