<svg width="62" height="44" viewBox="0 0 62 44" fill="none" xmlns="http://www.w3.org/2000/svg">
<path fill-rule="evenodd" clip-rule="evenodd" d="M19.6803 5.57658C14.5044 5.57658 10.3087 9.77239 10.3087 14.9481V34.6284C10.3087 39.8042 14.5044 44 19.6803 44H41.2349C46.4108 44 50.6065 39.8042 50.6065 34.6284V14.9481C50.6065 9.77239 46.4108 5.57658 41.2349 5.57658H35.4339C34.4709 5.57658 33.6646 4.84694 33.5688 3.88874L33.3647 1.84786C33.3052 1.25207 32.9444 0.728464 32.4088 0.460656C31.1804 -0.153552 29.7348 -0.153552 28.5064 0.460656C27.9708 0.728464 27.61 1.25207 27.5505 1.84786L27.3464 3.88874C27.2505 4.84694 26.4442 5.57658 25.4812 5.57658H19.6803ZM22.9603 23.8511C25.2895 23.8511 27.1775 21.963 27.1775 19.6339C27.1775 17.3049 25.2895 15.4167 22.9603 15.4167C20.6312 15.4167 18.7431 17.3049 18.7431 19.6339C18.7431 21.963 20.6312 23.8511 22.9603 23.8511ZM37.9548 23.8511C40.284 23.8511 42.172 21.963 42.172 19.6339C42.172 17.3049 40.284 15.4167 37.9548 15.4167C35.6257 15.4167 33.7376 17.3049 33.7376 19.6339C33.7376 21.963 35.6257 23.8511 37.9548 23.8511ZM20.6174 29.849C20.6174 28.6067 21.6244 27.5998 22.8665 27.5998H38.0486C39.2908 27.5998 40.2977 28.6067 40.2977 29.849C40.2977 34.8176 36.2697 38.8456 31.3009 38.8456H29.6142C24.6454 38.8456 20.6174 34.8176 20.6174 29.849Z" fill="#FF8A35"/>
<path d="M53.4179 14.9482H56.2294C59.3349 14.9482 61.8523 17.4657 61.8523 20.5711V29.9427C61.8523 33.0481 59.3349 35.5656 56.2294 35.5656H53.4179V14.9482Z" fill="#FF8A35"/>
<path d="M8.43441 35.5656H5.62294C2.51748 35.5656 0 33.0481 0 29.9427V20.5711C0 17.4657 2.51748 14.9482 5.62294 14.9482H8.43441V35.5656Z" fill="#FF8A35"/>
</svg>
