<svg width="39" height="45" viewBox="0 0 39 45" fill="none" xmlns="http://www.w3.org/2000/svg">
<path d="M19.25 22.5C22.1674 22.5 24.9653 21.3411 27.0282 19.2782C29.0911 17.2153 30.25 14.4174 30.25 11.5C30.25 8.58262 29.0911 5.78473 27.0282 3.72183C24.9653 1.65893 22.1674 0.5 19.25 0.5C16.3326 0.5 13.5347 1.65893 11.4718 3.72183C9.40893 5.78473 8.25 8.58262 8.25 11.5C8.25 14.4174 9.40893 17.2153 11.4718 19.2782C13.5347 21.3411 16.3326 22.5 19.25 22.5ZM15.3227 26.625C6.85781 26.625 0 33.4828 0 41.9477C0 43.357 1.14297 44.5 2.55234 44.5H35.9477C37.357 44.5 38.5 43.357 38.5 41.9477C38.5 33.4828 31.6422 26.625 23.1773 26.625H15.3227Z" fill="#FF8A35"/>
</svg>
