<svg width="81" height="65" viewBox="0 0 81 65" fill="none" xmlns="http://www.w3.org/2000/svg">
<path d="M58.5297 34.0937C59.5662 29.0989 58.4203 24.3645 50.7953 24.3645C49.1964 24.3645 47.738 24.5833 46.4255 25.0051L39.7693 39.9583C40.7224 41.2812 42.2641 42.4687 44.462 43.7343C47.8839 45.6978 48.7276 47.0208 48.2328 49.2708C47.8318 51.1197 46.8058 52.578 44.6235 52.578C42.3787 52.578 42.0141 50.7395 42.4151 48.0676H34.988C33.936 53.5937 35.3735 58.0989 43.337 58.0989C50.686 58.0989 54.7901 53.8124 55.9724 48.4374C57.1703 42.9687 55.1599 40.401 49.7589 37.3645C46.587 35.5989 46.0714 34.6405 46.4776 32.776C46.8787 30.9583 47.863 29.8801 49.5349 29.8801C51.6703 29.8801 51.6599 31.828 51.2901 34.0937H58.5297Z" fill="#FF8A35"/>
<path d="M54.5662 0C51.8735 5.23438 49.259 10.5104 46.7277 15.8229H39.8996L36.2173 25.5365C34.6444 29.6615 32.8735 34.0313 31.686 37.9063H31.4725C31.9621 34.151 32.3371 29.6146 32.5558 25.4427L33.186 15.9375H25.2173L25.1548 45.3281H33.66C31.0715 51.625 28.5975 57.9688 26.2277 64.3542C36.9465 43.4948 46.4204 22 54.5662 0Z" fill="#FF8A35"/>
<path d="M0.0256348 31.487V21.987L12.0465 14.2162H16.609V56.4037H6.98397V26.987L0.0256348 31.487Z" fill="#FF8A35"/>
<path d="M63.8911 31.487V21.987L75.9119 14.2162H80.4744V56.4037H70.8494V26.987L63.8911 31.487Z" fill="#FF8A35"/>
</svg>
