<svg width="30" height="31" viewBox="0 0 30 31" fill="none" xmlns="http://www.w3.org/2000/svg">
<g id="skull-solid " clip-path="url(#clip0_629_1239)">
<g id="Vector" filter="url(#filter0_i_629_1239)">
<path d="M24.375 23.873C27.8027 21.4648 30 17.7734 30 13.625C30 6.37695 23.2852 0.5 15 0.5C6.71484 0.5 0 6.37695 0 13.625C0 17.7676 2.19727 21.4648 5.625 23.873C5.625 23.8965 5.625 23.9141 5.625 23.9375V27.6875C5.625 29.2402 6.88477 30.5 8.4375 30.5H11.25V27.6875C11.25 27.1719 11.6719 26.75 12.1875 26.75C12.7031 26.75 13.125 27.1719 13.125 27.6875V30.5H16.875V27.6875C16.875 27.1719 17.2969 26.75 17.8125 26.75C18.3281 26.75 18.75 27.1719 18.75 27.6875V30.5H21.5625C23.1152 30.5 24.375 29.2402 24.375 27.6875V23.9375C24.375 23.9141 24.375 23.8965 24.375 23.873ZM5.625 15.5C5.625 14.5054 6.02009 13.5516 6.72335 12.8483C7.42661 12.1451 8.38044 11.75 9.375 11.75C10.3696 11.75 11.3234 12.1451 12.0267 12.8483C12.7299 13.5516 13.125 14.5054 13.125 15.5C13.125 16.4946 12.7299 17.4484 12.0267 18.1516C11.3234 18.8549 10.3696 19.25 9.375 19.25C8.38044 19.25 7.42661 18.8549 6.72335 18.1516C6.02009 17.4484 5.625 16.4946 5.625 15.5ZM20.625 11.75C21.6196 11.75 22.5734 12.1451 23.2766 12.8483C23.9799 13.5516 24.375 14.5054 24.375 15.5C24.375 16.4946 23.9799 17.4484 23.2766 18.1516C22.5734 18.8549 21.6196 19.25 20.625 19.25C19.6304 19.25 18.6766 18.8549 17.9734 18.1516C17.2701 17.4484 16.875 16.4946 16.875 15.5C16.875 14.5054 17.2701 13.5516 17.9734 12.8483C18.6766 12.1451 19.6304 11.75 20.625 11.75Z" fill="#5EA0BD"/>
</g>
</g>
<defs>
<filter id="filter0_i_629_1239" x="0" y="0.5" width="32" height="32" filterUnits="userSpaceOnUse" color-interpolation-filters="sRGB">
<feFlood flood-opacity="0" result="BackgroundImageFix"/>
<feBlend mode="normal" in="SourceGraphic" in2="BackgroundImageFix" result="shape"/>
<feColorMatrix in="SourceAlpha" type="matrix" values="0 0 0 0 0 0 0 0 0 0 0 0 0 0 0 0 0 0 127 0" result="hardAlpha"/>
<feOffset dx="2" dy="2"/>
<feGaussianBlur stdDeviation="1"/>
<feComposite in2="hardAlpha" operator="arithmetic" k2="-1" k3="1"/>
<feColorMatrix type="matrix" values="0 0 0 0 0 0 0 0 0 0 0 0 0 0 0 0 0 0 0.25 0"/>
<feBlend mode="normal" in2="shape" result="effect1_innerShadow_629_1239"/>
</filter>
<clipPath id="clip0_629_1239">
<rect width="30" height="30" fill="white" transform="translate(0 0.5)"/>
</clipPath>
</defs>
</svg>
