<svg width="44" height="84" viewBox="0 0 44 84" fill="none" xmlns="http://www.w3.org/2000/svg">
<path d="M43.5748 44.5017C44.9281 37.9821 43.432 31.8024 33.4767 31.8024C31.3891 31.8024 29.4851 32.0879 27.7714 32.6386L19.0809 52.1566C20.3254 53.8833 22.3382 55.4334 25.2078 57.0854C29.6755 59.6483 30.7771 61.3751 30.1311 64.312C29.6075 66.7254 28.2679 68.6289 25.4186 68.6289C22.4878 68.6289 22.0118 66.2291 22.5354 62.7416H12.8385C11.4648 69.9546 13.3417 75.8351 23.739 75.8351C33.3339 75.8351 38.6924 70.2401 40.236 63.2242C41.8 56.086 39.1752 52.7344 32.1235 48.771C27.9822 46.4664 27.309 45.2155 27.8394 42.7817C28.3631 40.4091 29.6483 39.0018 31.8311 39.0018C34.6191 39.0018 34.6055 41.5444 34.1227 44.5017H43.5748Z" fill="#E1F6FF"/>
<path d="M38.4001 0C34.8844 6.83231 31.4708 13.719 28.1659 20.6533H19.251L14.4434 33.3321C12.3897 38.7164 10.0777 44.4202 8.5273 49.4781H8.2485C8.88771 44.5766 9.37731 38.6552 9.66292 33.2098L10.4857 20.8028H0.081601L0 59.1657H11.1045C7.72489 67.3849 4.49485 75.6653 1.40082 84C15.3954 56.7727 27.7647 28.7161 38.4001 0Z" fill="#E1F6FF"/>
</svg>
