<svg width="86" height="86" viewBox="0 0 86 86" fill="none" xmlns="http://www.w3.org/2000/svg">
<g id="Smartwatch">
<path id="Vector" d="M43 83.3125C65.264 83.3125 83.3125 65.264 83.3125 43C83.3125 20.736 65.264 2.6875 43 2.6875C20.736 2.6875 2.6875 20.736 2.6875 43C2.6875 65.264 20.736 83.3125 43 83.3125Z" fill="#382673"/>
<path id="Vector_2" d="M43 76.5938C61.5533 76.5938 76.5938 61.5533 76.5938 43C76.5938 24.4467 61.5533 9.40625 43 9.40625C24.4467 9.40625 9.40625 24.4467 9.40625 43C9.40625 61.5533 24.4467 76.5938 43 76.5938Z" fill="#473080"/>
<path id="Vector_3" d="M83.3797 43C83.3797 34.5344 80.7594 26.6734 76.2579 20.1562H65.1719C62.0141 20.1562 59.125 21.4328 57.1094 23.5156H7.65942C4.43442 29.2937 2.62036 35.9453 2.62036 43C2.62036 50.0547 4.43442 56.7062 7.65942 62.4844H54.7579C60.9391 62.4844 66.7844 65.2391 70.7485 69.9422L71.8235 71.2188C78.9454 63.9625 83.3797 53.9516 83.3797 43Z" fill="#FFDE39"/>
<path id="Vector_4" d="M57.7812 54.2203V52.2047C58.1843 52.0031 58.4531 51.5328 58.4531 51.0625V44.3437C58.4531 43.8734 58.1843 43.4031 57.7812 43.2016V39.5734C57.9156 39.6406 58.0499 39.6406 58.2515 39.6406C58.3859 39.6406 58.4531 39.6406 58.5203 39.5734C58.5875 39.5734 58.6546 39.5062 58.789 39.4391C58.9906 39.3047 59.125 39.0359 59.125 38.7672V34.5344C59.125 34.2656 58.9906 33.9969 58.789 33.8625C58.7218 33.7953 58.6546 33.7281 58.5203 33.7281C58.4531 33.5938 58.3187 33.5937 58.2515 33.5937C58.1171 33.5937 57.9156 33.5937 57.7812 33.6609V31.7797C57.7812 29.4281 55.9 27.5469 53.5484 27.5469H53.8843C53.8843 27.0094 53.5484 26.5391 53.0781 26.3375V23.5156H34.2656V26.2031C33.5937 26.2703 33.0562 26.875 33.0562 27.5469H33.8625C31.5109 27.5469 29.6296 29.4281 29.6296 31.7797V54.1531C29.6296 56.3703 31.3765 58.1844 33.5265 58.3859H33.1234C33.1234 59.125 33.6609 59.6625 34.3328 59.7297V62.4172H53.1453V59.5953C53.6156 59.3937 53.9515 58.9234 53.9515 58.3859C56.0343 58.2516 57.7812 56.4375 57.7812 54.2203Z" fill="#FEC632"/>
<path id="Vector_5" d="M52.2047 58.4531H32.4516C30.1 58.4531 28.2188 56.5719 28.2188 54.2203V31.7797C28.2188 29.4281 30.1 27.5469 32.4516 27.5469H52.1375C54.4891 27.5469 56.3703 29.4281 56.3703 31.7797V54.1531C56.4375 56.5719 54.5562 58.4531 52.2047 58.4531Z" fill="white"/>
<path id="Vector_6" opacity="0.2" d="M52.2047 58.4531H32.4516C30.1 58.4531 28.2188 56.5719 28.2188 54.2203V31.7797C28.2188 29.4281 30.1 27.5469 32.4516 27.5469H52.1375C54.4891 27.5469 56.3703 29.4281 56.3703 31.7797V54.1531C56.4375 56.5719 54.5562 58.4531 52.2047 58.4531Z" fill="#382673"/>
<path id="Vector_7" d="M50.8609 58.4531H31.1078C28.7562 58.4531 26.875 56.5719 26.875 54.2203V31.7797C26.875 29.4281 28.7562 27.5469 31.1078 27.5469H50.7937C53.1453 27.5469 55.0266 29.4281 55.0266 31.7797V54.1531C55.0937 56.5719 53.2125 58.4531 50.8609 58.4531Z" fill="white"/>
<path id="Vector_8" d="M31.1078 55.7656C30.2344 55.7656 29.5625 55.0937 29.5625 54.2203V31.7797C29.5625 30.9062 30.2344 30.2344 31.1078 30.2344H50.7937C51.6672 30.2344 52.3391 30.9062 52.3391 31.7797V54.1531C52.3391 55.0266 51.6672 55.6984 50.7937 55.6984H31.1078V55.7656Z" fill="#473080"/>
<path id="Vector_9" d="M30.2344 33.1234C30.2344 32.25 30.9062 31.5781 31.7797 31.5781H51.4656C51.8016 31.5781 52.0703 31.7125 52.3391 31.8469V31.7797C52.3391 30.9062 51.6672 30.2344 50.7937 30.2344H31.1078C30.2344 30.2344 29.5625 30.9062 29.5625 31.7797V54.1531C29.5625 54.6906 29.8312 55.1609 30.2344 55.4297V33.1234Z" fill="#382673"/>
<path id="Vector_10" d="M50.3906 21.5H34.2656C33.5266 21.5 32.9219 22.1047 32.9219 22.8438V27.5469H51.7344V22.8438C51.7344 22.1047 51.1297 21.5 50.3906 21.5ZM34.2656 64.5H50.3906C51.1297 64.5 51.7344 63.8953 51.7344 63.1562V58.4531H32.9219V63.1562C32.9219 63.8953 33.5266 64.5 34.2656 64.5Z" fill="#0CAFE8"/>
<path id="Vector_11" d="M49.0469 58.4531V63.1562C49.0469 63.8953 48.4422 64.5 47.7031 64.5H50.3906C51.1297 64.5 51.7344 63.8953 51.7344 63.1562V58.4531H49.0469Z" fill="#0B90D3"/>
<path id="Vector_12" d="M56.9078 39.6408C57.3781 39.6408 57.7812 39.2377 57.7812 38.7674V34.5346C57.7812 34.0643 57.3781 33.6611 56.9078 33.6611C55.9 33.6611 55.0938 34.4674 55.0938 35.4752V37.9611C55.0938 38.8346 55.9 39.6408 56.9078 39.6408Z" fill="white"/>
<path id="Vector_13" opacity="0.4" d="M56.4375 37.8266V35.3406C56.4375 34.6687 56.8406 34.0641 57.4453 33.7281C57.2438 33.6609 57.1094 33.5938 56.9078 33.5938C55.9 33.5938 55.0938 34.4 55.0938 35.4078V37.8938C55.0938 38.9016 55.9 39.7078 56.9078 39.7078C57.1094 39.7078 57.3109 39.6406 57.4453 39.5062C56.8406 39.1703 56.4375 38.5656 56.4375 37.8266Z" fill="#382673"/>
<path id="Vector_14" d="M56.4375 52.4062C57.1766 52.4062 57.7812 51.8016 57.7812 51.0625V44.3438C57.7812 43.6047 57.1766 43 56.4375 43V52.4062Z" fill="white"/>
<path id="Vector_15" d="M52.5405 58.4531H31.7124C31.7124 59.1922 32.3171 59.7969 33.0562 59.7969H51.1968C51.9358 59.7969 52.5405 59.1922 52.5405 58.4531ZM50.3905 21.5H47.703C48.4421 21.5 49.0468 22.1047 49.0468 22.8438V27.5469H51.7343V22.8438C51.7343 22.1047 51.1296 21.5 50.3905 21.5Z" fill="#0B90D3"/>
<path id="Vector_16" d="M52.5405 27.5469H31.7124C31.7124 26.8078 32.3171 26.2031 33.0562 26.2031H51.1968C51.9358 26.2031 52.5405 26.8078 52.5405 27.5469Z" fill="#0CAFE8"/>
<path id="Vector_17" d="M51.1968 26.2031H49.1812C49.9202 26.2031 50.5249 26.8078 50.5249 27.5469H52.5405C52.5405 26.8078 51.9358 26.2031 51.1968 26.2031Z" fill="#0B90D3"/>
<path id="Vector_18" d="M51.1968 59.7969H49.1812C49.9202 59.7969 50.5249 59.1922 50.5249 58.4531H52.5405C52.5405 59.1922 51.9358 59.7969 51.1968 59.7969Z" fill="#007BC6"/>
<path id="Vector_19" d="M48.0798 43.5236C48.2083 39.5923 45.1254 36.3012 41.1941 36.1727C37.2628 36.0443 33.9717 39.1271 33.8432 43.0584C33.7147 46.9898 36.7976 50.2809 40.7289 50.4094C44.6602 50.5378 47.9514 47.455 48.0798 43.5236Z" fill="#00C2A9"/>
<path id="Vector_20" d="M40.3796 43.6045L38.5655 41.6561C38.4312 41.5217 38.2968 41.5217 38.1624 41.6561L37.0202 42.7311C36.8858 42.8654 36.8858 42.9998 37.0202 43.1342L40.3124 46.6951C40.4468 46.8295 40.5812 46.8295 40.7155 46.6951L45.2843 42.3951C45.4187 42.2607 45.4187 42.1264 45.2843 41.992L44.2093 40.8498C44.0749 40.7154 43.9405 40.7154 43.8062 40.8498L40.7827 43.6717C40.7155 43.7389 40.514 43.7389 40.3796 43.6045ZM55.7655 42.9998H56.4374V52.4061H55.7655V42.9998Z" fill="white"/>
<path id="Vector_21" opacity="0.4" d="M55.7656 43H56.4375V52.4062H55.7656V43Z" fill="#382673"/>
<path id="Vector_22" d="M82.6406 50.1895L81.3641 51.466C77.8717 54.962 73.724 57.7348 69.1585 59.6255C64.593 61.5163 59.6993 62.4879 54.7578 62.4848C60.9391 62.4848 66.7844 65.2395 70.7484 69.9426L71.8234 71.2191C77.3328 65.5754 81.2297 58.3191 82.6406 50.1895Z" fill="#FEC632"/>
<path id="Vector_23" d="M66.1125 28.5551L66.5156 27.5473C66.65 27.2785 67.0531 27.2785 67.1203 27.5473L67.5234 28.5551C67.8594 29.3613 68.4641 29.966 69.2703 30.302L70.2781 30.7051C70.5469 30.8395 70.5469 31.2426 70.2781 31.3098L69.2703 31.7129C68.4641 32.0488 67.8594 32.6535 67.5234 33.4598L67.1203 34.4676C66.9859 34.7363 66.5828 34.7363 66.5156 34.4676L66.1125 33.4598C65.7766 32.6535 65.1719 32.0488 64.3656 31.7129L63.3578 31.3098C63.0891 31.1754 63.0891 30.7723 63.3578 30.7051L64.3656 30.302C65.1719 29.966 65.7766 29.2941 66.1125 28.5551Z" fill="white"/>
</g>
</svg>
