<svg width="29" height="24" viewBox="0 0 29 24" fill="none" xmlns="http://www.w3.org/2000/svg">
<g id="user-group-solid 1" clip-path="url(#clip0_643_1312)">
<path id="Vector" d="M4.3125 6.25C4.3125 4.72501 4.9183 3.26247 5.99664 2.18414C7.07497 1.1058 8.53751 0.5 10.0625 0.5C11.5875 0.5 13.05 1.1058 14.1284 2.18414C15.2067 3.26247 15.8125 4.72501 15.8125 6.25C15.8125 7.77499 15.2067 9.23753 14.1284 10.3159C13.05 11.3942 11.5875 12 10.0625 12C8.53751 12 7.07497 11.3942 5.99664 10.3159C4.9183 9.23753 4.3125 7.77499 4.3125 6.25ZM0 22.1658C0 17.741 3.58477 14.1562 8.00957 14.1562H12.1154C16.5402 14.1562 20.125 17.741 20.125 22.1658C20.125 22.9025 19.5275 23.5 18.7908 23.5H1.33418C0.597461 23.5 0 22.9025 0 22.1658ZM27.3709 23.5H21.1762C21.4187 23.0777 21.5625 22.5881 21.5625 22.0625V21.7031C21.5625 18.9764 20.3451 16.5281 18.427 14.884C18.5348 14.8795 18.6381 14.875 18.7459 14.875H21.5041C25.5066 14.875 28.75 18.1184 28.75 22.1209C28.75 22.8846 28.1301 23.5 27.3709 23.5ZM19.4062 12C18.0137 12 16.7559 11.434 15.8439 10.5221C16.7289 9.32715 17.25 7.84922 17.25 6.25C17.25 5.04609 16.9535 3.90957 16.4279 2.9123C17.2635 2.30137 18.2922 1.9375 19.4062 1.9375C22.1869 1.9375 24.4375 4.18809 24.4375 6.96875C24.4375 9.74941 22.1869 12 19.4062 12Z" fill="#1E3050"/>
</g>
<defs>
<clipPath id="clip0_643_1312">
<rect width="28.75" height="23" fill="white" transform="translate(0 0.5)"/>
</clipPath>
</defs>
</svg>
