<svg width="105" height="105" viewBox="0 0 105 105" fill="none" xmlns="http://www.w3.org/2000/svg">
<g id="Vector" filter="url(#filter0_d_16_227)">
<path d="M48.2812 15.0938V5.4375C48.2812 4.58383 48.6204 3.76513 49.224 3.1615C49.8276 2.55787 50.6463 2.21875 51.5 2.21875C52.3537 2.21875 53.1724 2.55787 53.776 3.1615C54.3796 3.76513 54.7188 4.58383 54.7188 5.4375V15.0938C54.7188 15.9474 54.3796 16.7661 53.776 17.3697C53.1724 17.9734 52.3537 18.3125 51.5 18.3125C50.6463 18.3125 49.8276 17.9734 49.224 17.3697C48.6204 16.7661 48.2812 15.9474 48.2812 15.0938ZM51.5 24.75C46.4071 24.75 41.4286 26.2602 37.1941 29.0897C32.9595 31.9191 29.6591 35.9407 27.7101 40.6459C25.7611 45.3511 25.2512 50.5286 26.2448 55.5236C27.2383 60.5186 29.6908 65.1068 33.292 68.708C36.8932 72.3092 41.4814 74.7617 46.4764 75.7552C51.4714 76.7488 56.6489 76.2389 61.3541 74.2899C66.0593 72.3409 70.0809 69.0405 72.9103 64.8059C75.7398 60.5714 77.25 55.5929 77.25 50.5C77.2425 43.673 74.5272 37.1277 69.6998 32.3002C64.8723 27.4728 58.327 24.7575 51.5 24.75ZM23.4727 27.0273C24.0767 27.6312 24.8959 27.9705 25.75 27.9705C26.6041 27.9705 27.4233 27.6312 28.0273 27.0273C28.6312 26.4233 28.9705 25.6041 28.9705 24.75C28.9705 23.8959 28.6312 23.0767 28.0273 22.4727L21.5898 16.0352C20.9858 15.4313 20.1666 15.092 19.3125 15.092C18.4584 15.092 17.6392 15.4313 17.0352 16.0352C16.4313 16.6392 16.092 17.4584 16.092 18.3125C16.092 19.1666 16.4313 19.9858 17.0352 20.5898L23.4727 27.0273ZM23.4727 73.9727L17.0352 80.4102C16.4313 81.0142 16.092 81.8334 16.092 82.6875C16.092 83.5416 16.4313 84.3608 17.0352 84.9648C17.6392 85.5687 18.4584 85.908 19.3125 85.908C20.1666 85.908 20.9858 85.5687 21.5898 84.9648L28.0273 78.5273C28.3263 78.2282 28.5635 77.8732 28.7254 77.4824C28.8872 77.0917 28.9705 76.6729 28.9705 76.25C28.9705 75.8271 28.8872 75.4083 28.7254 75.0176C28.5635 74.6268 28.3263 74.2718 28.0273 73.9727C27.7282 73.6737 27.3732 73.4365 26.9824 73.2746C26.5917 73.1128 26.1729 73.0295 25.75 73.0295C25.3271 73.0295 24.9083 73.1128 24.5176 73.2746C24.1268 73.4365 23.7718 73.6737 23.4727 73.9727ZM77.25 27.9688C77.6728 27.9691 78.0916 27.8861 78.4823 27.7246C78.873 27.563 79.2281 27.3261 79.5273 27.0273L85.9648 20.5898C86.5687 19.9858 86.908 19.1666 86.908 18.3125C86.908 17.4584 86.5687 16.6392 85.9648 16.0352C85.3608 15.4313 84.5416 15.092 83.6875 15.092C82.8334 15.092 82.0142 15.4313 81.4102 16.0352L74.9727 22.4727C74.5221 22.9229 74.2151 23.4966 74.0907 24.1214C73.9663 24.7461 74.03 25.3936 74.2739 25.9821C74.5177 26.5706 74.9306 27.0735 75.4604 27.4271C75.9902 27.7807 76.613 27.9693 77.25 27.9688ZM79.5273 73.9727C78.9233 73.3688 78.1041 73.0295 77.25 73.0295C76.3959 73.0295 75.5767 73.3688 74.9727 73.9727C74.3688 74.5767 74.0295 75.3959 74.0295 76.25C74.0295 77.1041 74.3688 77.9233 74.9727 78.5273L81.4102 84.9648C81.7093 85.2638 82.0643 85.501 82.4551 85.6629C82.8458 85.8247 83.2646 85.908 83.6875 85.908C84.1104 85.908 84.5292 85.8247 84.9199 85.6629C85.3107 85.501 85.6657 85.2638 85.9648 84.9648C86.2638 84.6657 86.501 84.3107 86.6629 83.9199C86.8247 83.5292 86.908 83.1104 86.908 82.6875C86.908 82.2646 86.8247 81.8458 86.6629 81.4551C86.501 81.0643 86.2638 80.7093 85.9648 80.4102L79.5273 73.9727ZM19.3125 50.5C19.3125 49.6463 18.9734 48.8276 18.3697 48.224C17.7661 47.6204 16.9474 47.2812 16.0938 47.2812H6.4375C5.58383 47.2812 4.76513 47.6204 4.1615 48.224C3.55787 48.8276 3.21875 49.6463 3.21875 50.5C3.21875 51.3537 3.55787 52.1724 4.1615 52.776C4.76513 53.3796 5.58383 53.7188 6.4375 53.7188H16.0938C16.9474 53.7188 17.7661 53.3796 18.3697 52.776C18.9734 52.1724 19.3125 51.3537 19.3125 50.5ZM51.5 82.6875C50.6463 82.6875 49.8276 83.0266 49.224 83.6302C48.6204 84.2339 48.2812 85.0526 48.2812 85.9062V95.5625C48.2812 96.4162 48.6204 97.2349 49.224 97.8385C49.8276 98.4421 50.6463 98.7812 51.5 98.7812C52.3537 98.7812 53.1724 98.4421 53.776 97.8385C54.3796 97.2349 54.7188 96.4162 54.7188 95.5625V85.9062C54.7188 85.0526 54.3796 84.2339 53.776 83.6302C53.1724 83.0266 52.3537 82.6875 51.5 82.6875ZM96.5625 47.2812H86.9062C86.0526 47.2812 85.2339 47.6204 84.6302 48.224C84.0266 48.8276 83.6875 49.6463 83.6875 50.5C83.6875 51.3537 84.0266 52.1724 84.6302 52.776C85.2339 53.3796 86.0526 53.7188 86.9062 53.7188H96.5625C97.4162 53.7188 98.2349 53.3796 98.8385 52.776C99.4421 52.1724 99.7812 51.3537 99.7812 50.5C99.7812 49.6463 99.4421 48.8276 98.8385 48.224C98.2349 47.6204 97.4162 47.2812 96.5625 47.2812Z" fill="#FF8A35"/>
</g>
<defs>
<filter id="filter0_d_16_227" x="0.21875" y="0.21875" width="104.562" height="104.562" filterUnits="userSpaceOnUse" color-interpolation-filters="sRGB">
<feFlood flood-opacity="0" result="BackgroundImageFix"/>
<feColorMatrix in="SourceAlpha" type="matrix" values="0 0 0 0 0 0 0 0 0 0 0 0 0 0 0 0 0 0 127 0" result="hardAlpha"/>
<feOffset dx="1" dy="2"/>
<feGaussianBlur stdDeviation="2"/>
<feComposite in2="hardAlpha" operator="out"/>
<feColorMatrix type="matrix" values="0 0 0 0 0 0 0 0 0 0 0 0 0 0 0 0 0 0 0.4 0"/>
<feBlend mode="normal" in2="BackgroundImageFix" result="effect1_dropShadow_16_227"/>
<feBlend mode="normal" in="SourceGraphic" in2="effect1_dropShadow_16_227" result="shape"/>
</filter>
</defs>
</svg>
