<svg width="17" height="17" viewBox="0 0 17 17" fill="none" xmlns="http://www.w3.org/2000/svg">
<g id="Vector">
<path d="M17 8.5C17 13.1944 13.1944 17 8.5 17C3.80558 17 0 13.1944 0 8.5C0 3.80558 3.80558 0 8.5 0C13.1944 0 17 3.80558 17 8.5Z" fill="white"/>
<path d="M14.4259 5.49369C14.9047 4.93762 14.8303 4.09603 14.2613 3.63261C13.7147 3.18744 12.9132 3.25752 12.4522 3.7908L6.88679 10.2285C6.72644 10.414 6.44768 10.4384 6.25757 10.2836L4.37012 8.74638C3.82696 8.30401 3.03052 8.37366 2.57239 8.90357C2.09479 9.456 2.16806 10.2938 2.73429 10.755L5.78779 13.2417C6.42303 13.7591 7.35293 13.6847 7.89793 13.0731L7.93333 13.0333L14.4259 5.49369Z" fill="#03A403"/>
</g>
</svg>
