<svg width="48" height="38" viewBox="0 0 48 38" fill="none" xmlns="http://www.w3.org/2000/svg">
<g clip-path="url(#clip0_44_275)">
<path d="M7.125 9.5C7.125 6.98044 8.12589 4.56408 9.90749 2.78249C11.6891 1.00089 14.1054 0 16.625 0C19.1446 0 21.5609 1.00089 23.3425 2.78249C25.1241 4.56408 26.125 6.98044 26.125 9.5C26.125 12.0196 25.1241 14.4359 23.3425 16.2175C21.5609 17.9991 19.1446 19 16.625 19C14.1054 19 11.6891 17.9991 9.90749 16.2175C8.12589 14.4359 7.125 12.0196 7.125 9.5ZM0 35.7957C0 28.4852 5.92266 22.5625 13.2332 22.5625H20.0168C27.3273 22.5625 33.25 28.4852 33.25 35.7957C33.25 37.0129 32.2629 38 31.0457 38H2.2043C0.987109 38 0 37.0129 0 35.7957ZM45.2215 38H34.9867C35.3875 37.3023 35.625 36.4934 35.625 35.625V35.0312C35.625 30.5262 33.6137 26.4813 30.4445 23.7648C30.6227 23.7574 30.7934 23.75 30.9715 23.75H35.5285C42.1414 23.75 47.5 29.1086 47.5 35.7215C47.5 36.9832 46.4758 38 45.2215 38ZM32.0625 19C29.7617 19 27.6836 18.0648 26.177 16.5582C27.6391 14.584 28.5 12.1422 28.5 9.5C28.5 7.51094 28.0102 5.6332 27.1418 3.98555C28.5223 2.97617 30.2219 2.375 32.0625 2.375C36.6566 2.375 40.375 6.09336 40.375 10.6875C40.375 15.2816 36.6566 19 32.0625 19Z" fill="#1E3050"/>
</g>
<defs>
<clipPath id="clip0_44_275">
<rect width="47.5" height="38" fill="white"/>
</clipPath>
</defs>
</svg>
