<svg width="39" height="44" viewBox="0 0 39 44" fill="none" xmlns="http://www.w3.org/2000/svg">
<g clip-path="url(#clip0_44_312)">
<path d="M19.25 22C22.1674 22 24.9653 20.8411 27.0282 18.7782C29.0911 16.7153 30.25 13.9174 30.25 11C30.25 8.08262 29.0911 5.28473 27.0282 3.22183C24.9653 1.15893 22.1674 0 19.25 0C16.3326 0 13.5347 1.15893 11.4718 3.22183C9.40893 5.28473 8.25 8.08262 8.25 11C8.25 13.9174 9.40893 16.7153 11.4718 18.7782C13.5347 20.8411 16.3326 22 19.25 22ZM15.3227 26.125C6.85781 26.125 0 32.9828 0 41.4477C0 42.857 1.14297 44 2.55234 44H35.9477C37.357 44 38.5 42.857 38.5 41.4477C38.5 32.9828 31.6422 26.125 23.1773 26.125H15.3227Z" fill="#FF8A35"/>
</g>
<defs>
<clipPath id="clip0_44_312">
<rect width="38.5" height="44" fill="white"/>
</clipPath>
</defs>
</svg>
