<svg width="34" height="38" viewBox="0 0 34 38" fill="none" xmlns="http://www.w3.org/2000/svg">
<g clip-path="url(#clip0_44_273)">
<path d="M17.125 19C19.6446 19 22.0609 17.9991 23.8425 16.2175C25.6241 14.4359 26.625 12.0196 26.625 9.5C26.625 6.98044 25.6241 4.56408 23.8425 2.78249C22.0609 1.00089 19.6446 0 17.125 0C14.6054 0 12.1891 1.00089 10.4075 2.78249C8.62589 4.56408 7.625 6.98044 7.625 9.5C7.625 12.0196 8.62589 14.4359 10.4075 16.2175C12.1891 17.9991 14.6054 19 17.125 19ZM13.7332 22.5625C6.42266 22.5625 0.5 28.4852 0.5 35.7957C0.5 37.0129 1.48711 38 2.7043 38H31.5457C32.7629 38 33.75 37.0129 33.75 35.7957C33.75 28.4852 27.8273 22.5625 20.5168 22.5625H13.7332Z" fill="#1E3050"/>
</g>
<defs>
<clipPath id="clip0_44_273">
<rect width="33.25" height="38" fill="white" transform="translate(0.5)"/>
</clipPath>
</defs>
</svg>
