<svg width="52" height="41" viewBox="0 0 52 41" fill="none" xmlns="http://www.w3.org/2000/svg">
<g clip-path="url(#clip0_44_303)">
<path d="M7.6875 10.25C7.6875 7.53153 8.76741 4.9244 10.6897 3.00216C12.6119 1.07991 15.219 0 17.9375 0C20.656 0 23.2631 1.07991 25.1853 3.00216C27.1076 4.9244 28.1875 7.53153 28.1875 10.25C28.1875 12.9685 27.1076 15.5756 25.1853 17.4978C23.2631 19.4201 20.656 20.5 17.9375 20.5C15.219 20.5 12.6119 19.4201 10.6897 17.4978C8.76741 15.5756 7.6875 12.9685 7.6875 10.25ZM0 38.6217C0 30.734 6.39023 24.3438 14.2779 24.3438H21.5971C29.4848 24.3438 35.875 30.734 35.875 38.6217C35.875 39.935 34.81 41 33.4967 41H2.37832C1.06504 41 0 39.935 0 38.6217ZM48.7916 41H37.7488C38.1812 40.2473 38.4375 39.3744 38.4375 38.4375V37.7969C38.4375 32.9361 36.2674 28.5719 32.848 25.641C33.0402 25.633 33.2244 25.625 33.4166 25.625H38.3334C45.4684 25.625 51.25 31.4066 51.25 38.5416C51.25 39.9029 50.1449 41 48.7916 41ZM34.5938 20.5C32.1113 20.5 29.8691 19.491 28.2436 17.8654C29.8211 15.7354 30.75 13.1008 30.75 10.25C30.75 8.10391 30.2215 6.07793 29.2846 4.3002C30.774 3.21113 32.6078 2.5625 34.5938 2.5625C39.5506 2.5625 43.5625 6.57441 43.5625 11.5312C43.5625 16.4881 39.5506 20.5 34.5938 20.5Z" fill="#FF8A35"/>
</g>
<defs>
<clipPath id="clip0_44_303">
<rect width="51.25" height="41" fill="white"/>
</clipPath>
</defs>
</svg>
