<svg width="275" height="525" viewBox="0 0 275 525" fill="none" xmlns="http://www.w3.org/2000/svg">
<path d="M272.343 278.135C280.8 237.388 271.45 198.765 209.229 198.765C196.182 198.765 184.282 200.55 173.571 203.991L119.256 325.979C127.033 336.771 139.614 346.459 157.549 356.783C185.472 372.802 192.357 383.594 188.319 401.95C185.047 417.034 176.674 428.931 158.866 428.931C140.549 428.931 137.574 413.932 140.846 392.135H80.2404C71.6553 437.216 83.3854 473.969 148.369 473.969C208.337 473.969 241.827 439.001 251.475 395.151C261.25 350.538 244.845 329.59 200.772 304.819C174.889 290.415 170.681 282.597 173.997 267.386C177.269 252.557 185.302 243.761 198.944 243.761C216.37 243.761 216.285 259.653 213.267 278.135H272.343Z" fill="#E1F6FF" fill-opacity="0.15"/>
<path d="M240 0C218.028 42.7019 196.692 85.7438 176.037 129.083H120.319L90.2711 208.326C77.4359 241.978 62.9858 277.626 53.2956 309.238H51.5531C55.5482 278.604 58.6082 241.595 60.3932 207.561L65.5358 130.018H0.510006L0 369.786H69.4033C48.2806 421.156 28.0928 472.908 8.7551 525C96.2212 354.83 173.53 179.476 240 0Z" fill="#E1F6FF" fill-opacity="0.15"/>
</svg>
